<?xml version="1.0" encoding="utf-8"?>
<!-- Generator: Adobe Illustrator 18.0.0, SVG Export Plug-In . SVG Version: 6.00 Build 0)  -->
<!DOCTYPE svg PUBLIC "-//W3C//DTD SVG 1.1//EN" "http://www.w3.org/Graphics/SVG/1.1/DTD/svg11.dtd">
<svg version="1.1" id="Layer_1" xmlns="http://www.w3.org/2000/svg" xmlns:xlink="http://www.w3.org/1999/xlink" x="0px" y="0px"
	 viewBox="0 0 141.8 141.4" enable-background="new 0 0 141.8 141.4" xml:space="preserve">
<g id="ipad">
	<path fill="#FFFFFF" d="M101.8,98.1c0,1.3-0.9,2.3-2,2.3H38.3c-1.1,0-2-1-2-2.3V2.3c0-1.3,0.9-2.3,2-2.3h61.6c1.1,0,2,1,2,2.3
		L101.8,98.1L101.8,98.1z"/>
	<g>
		<g>
			<linearGradient id="XMLID_4_" gradientUnits="userSpaceOnUse" x1="106.3534" y1="71.7445" x2="31.7432" y2="28.6683">
				<stop  offset="0" style="stop-color:#FFFFFF"/>
				<stop  offset="1" style="stop-color:#000000"/>
			</linearGradient>
			<rect id="XMLID_1_" x="43" y="9.2" fill="url(#XMLID_4_)" width="52.1" height="82.1"/>
		</g>
		<g>
			<defs>
				<rect id="SVGID_3_" x="43" y="9.2" width="52.1" height="82.1"/>
			</defs>
			<linearGradient id="SVGID_1_" gradientUnits="userSpaceOnUse" x1="106.3534" y1="71.7445" x2="31.7432" y2="28.6683">
				<stop  offset="0" style="stop-color:#FFFFFF"/>
				<stop  offset="1" style="stop-color:#000000"/>
			</linearGradient>
			<use xlink:href="#SVGID_3_"  overflow="visible" fill="url(#SVGID_1_)"/>
			<clipPath id="SVGID_2_">
				<use xlink:href="#SVGID_3_"  overflow="visible"/>
			</clipPath>
			<linearGradient id="SVGID_4_" gradientUnits="userSpaceOnUse" x1="82.1054" y1="61.3887" x2="25.7857" y2="28.8726">
				<stop  offset="0" style="stop-color:#FFFFFF"/>
				<stop  offset="1" style="stop-color:#000000"/>
			</linearGradient>
			<polygon opacity="0.4" clip-path="url(#SVGID_2_)" fill="url(#SVGID_4_)" enable-background="new    " points="38.1,7.6 38.1,94 
				63.3,94 83.5,8.8 84.5,4.7 			"/>
		</g>
		<g>
			<linearGradient id="XMLID_5_" gradientUnits="userSpaceOnUse" x1="106.3534" y1="71.7445" x2="31.7432" y2="28.6683">
				<stop  offset="0" style="stop-color:#FFFFFF"/>
				<stop  offset="1" style="stop-color:#000000"/>
			</linearGradient>
			<rect id="XMLID_2_" x="43" y="9.2" fill="url(#XMLID_5_)" width="52.1" height="82.1"/>
		</g>
	</g>
	<ellipse fill="#FFFFFF" stroke="#000000" stroke-width="2" stroke-miterlimit="10" cx="69" cy="95.6" rx="1.9" ry="2.2"/>
</g>
<g>
	<path fill="#FFFFFF" d="M9.4,137.2H4.1l-1.2,4H0l5.5-17.1H8l5.4,17.1h-2.9L9.4,137.2z M4.8,134.8h3.9l-1.9-6.7L4.8,134.8z"/>
	<path fill="#FFFFFF" d="M18.6,134.7v6.5h-2.8v-17.1h5.7c0.9,0,1.6,0.1,2.4,0.4s1.3,0.6,1.9,1.1s0.9,1,1.2,1.7s0.4,1.4,0.4,2.2
		c0,0.8-0.1,1.5-0.4,2.2s-0.7,1.2-1.2,1.6s-1.1,0.8-1.9,1s-1.5,0.4-2.4,0.4H18.6z M18.6,132.4h2.9c0.5,0,0.9-0.1,1.3-0.2
		s0.7-0.3,1-0.6s0.5-0.6,0.6-0.9s0.2-0.8,0.2-1.2c0-0.4-0.1-0.9-0.2-1.2c-0.1-0.4-0.3-0.7-0.6-1s-0.6-0.5-1-0.6s-0.8-0.2-1.3-0.2
		h-2.9V132.4z"/>
	<path fill="#FFFFFF" d="M33,134.7v6.5h-2.8v-17.1h5.7c0.9,0,1.6,0.1,2.4,0.4s1.3,0.6,1.9,1.1s0.9,1,1.2,1.7s0.4,1.4,0.4,2.2
		c0,0.8-0.1,1.5-0.4,2.2s-0.7,1.2-1.2,1.6s-1.1,0.8-1.9,1s-1.5,0.4-2.4,0.4H33z M33,132.4h2.9c0.5,0,0.9-0.1,1.3-0.2s0.7-0.3,1-0.6
		s0.5-0.6,0.6-0.9s0.2-0.8,0.2-1.2c0-0.4-0.1-0.9-0.2-1.2c-0.1-0.4-0.3-0.7-0.6-1s-0.6-0.5-1-0.6s-0.8-0.2-1.3-0.2H33V132.4z"/>
	<path fill="#FFFFFF" d="M58.6,141.2v-17.1h4.2c1.2,0,2.2,0.2,3.2,0.6s1.7,0.9,2.4,1.6s1.2,1.5,1.5,2.5c0.4,1,0.5,2,0.5,3.2v1.3
		c0,1.2-0.2,2.2-0.5,3.2s-0.9,1.8-1.5,2.5s-1.4,1.2-2.4,1.6s-2,0.6-3.1,0.6H58.6z M61.5,126.4v12.5h1.4c0.8,0,1.4-0.1,2-0.4
		s1.1-0.6,1.4-1.1s0.7-1.1,0.9-1.8s0.3-1.5,0.3-2.3V132c0-0.8-0.1-1.6-0.3-2.3s-0.5-1.3-0.9-1.8c-0.4-0.5-0.9-0.9-1.5-1.2
		s-1.3-0.4-2.1-0.4H61.5z"/>
	<path fill="#FFFFFF" d="M83.1,133.6h-7v5.4h8.2v2.3h-11v-17.1h11v2.3h-8.1v4.8h7V133.6z"/>
	<path fill="#FFFFFF" d="M96.4,136.8c0-0.4-0.1-0.8-0.3-1.1s-0.4-0.6-0.7-0.8s-0.7-0.4-1.1-0.6s-0.9-0.3-1.4-0.5
		c-0.7-0.2-1.3-0.4-2-0.7s-1.2-0.6-1.7-1.1s-0.9-0.9-1.2-1.5s-0.5-1.2-0.5-1.9c0-0.7,0.2-1.4,0.5-2s0.7-1.1,1.3-1.5s1.1-0.7,1.9-0.9
		s1.4-0.3,2.2-0.3c0.8,0,1.6,0.1,2.3,0.4s1.3,0.6,1.9,1.1s1,1,1.3,1.6s0.5,1.3,0.5,2.1h-2.8c0-0.4-0.1-0.8-0.3-1.2
		c-0.1-0.4-0.3-0.7-0.6-0.9s-0.6-0.5-1-0.6s-0.8-0.2-1.3-0.2c-0.4,0-0.8,0.1-1.2,0.2s-0.7,0.3-0.9,0.5s-0.5,0.5-0.6,0.8
		s-0.2,0.6-0.2,1c0,0.4,0.1,0.7,0.3,1s0.5,0.5,0.8,0.8s0.7,0.4,1.1,0.6s0.9,0.3,1.3,0.4c0.7,0.2,1.4,0.5,2,0.8s1.2,0.7,1.7,1.1
		s0.9,0.9,1.2,1.5s0.4,1.2,0.4,2c0,0.8-0.2,1.4-0.5,2s-0.8,1.1-1.3,1.5s-1.2,0.7-1.9,0.9s-1.5,0.3-2.2,0.3c-0.5,0-1-0.1-1.6-0.2
		s-1-0.3-1.5-0.5s-0.9-0.5-1.3-0.8s-0.8-0.6-1.1-1s-0.5-0.8-0.7-1.3s-0.3-1-0.3-1.6h2.8c0,0.5,0.2,1,0.3,1.3s0.4,0.7,0.8,1
		s0.7,0.4,1.1,0.6s0.9,0.2,1.4,0.2c0.4,0,0.8-0.1,1.2-0.2s0.7-0.3,1-0.5s0.5-0.4,0.6-0.7S96.4,137.2,96.4,136.8z"/>
	<path fill="#FFFFFF" d="M102.3,124.1h10.1v2.3h-3.7v12.4h3.7v2.3h-10.1v-2.3h3.6v-12.4h-3.6V124.1z"/>
	<path fill="#FFFFFF" d="M127.8,139.1c-0.3,0.3-0.6,0.7-1,0.9s-0.8,0.5-1.3,0.8s-1,0.4-1.6,0.5s-1.2,0.2-1.8,0.2
		c-1,0-1.9-0.2-2.7-0.6s-1.5-0.9-2-1.6s-1-1.5-1.2-2.4s-0.4-1.9-0.4-3v-2.1c0-1.1,0.1-2.1,0.4-3c0.3-0.9,0.7-1.8,1.2-2.4
		s1.2-1.2,1.9-1.6s1.6-0.6,2.6-0.6c0.9,0,1.7,0.1,2.4,0.4s1.3,0.6,1.8,1s0.9,1,1.2,1.7s0.5,1.4,0.6,2.2H125
		c-0.1-0.5-0.2-0.9-0.3-1.2c-0.1-0.4-0.3-0.7-0.6-0.9s-0.6-0.5-0.9-0.6s-0.8-0.2-1.3-0.2c-0.6,0-1.1,0.1-1.5,0.4s-0.8,0.7-1.1,1.2
		c-0.3,0.5-0.5,1.1-0.6,1.7s-0.2,1.3-0.2,2v2.1c0,0.7,0.1,1.4,0.2,2s0.4,1.2,0.6,1.7s0.7,0.9,1.1,1.2s1,0.4,1.7,0.5
		c0.3,0,0.5,0,0.8-0.1s0.5-0.1,0.8-0.2s0.5-0.2,0.7-0.3s0.4-0.3,0.5-0.5l0-3.4h-3.1v-2.2h5.8L127.8,139.1z"/>
	<path fill="#FFFFFF" d="M141.8,141.2H139l-5.6-11.7l0,11.7h-2.8v-17.1h2.8l5.5,11.7l0-11.7h2.8V141.2z"/>
</g>
</svg>
