<?xml version="1.0" encoding="utf-8"?>
<!-- Generator: Adobe Illustrator 18.0.0, SVG Export Plug-In . SVG Version: 6.00 Build 0)  -->
<!DOCTYPE svg PUBLIC "-//W3C//DTD SVG 1.1//EN" "http://www.w3.org/Graphics/SVG/1.1/DTD/svg11.dtd">
<svg version="1.1" id="Layer_1" xmlns="http://www.w3.org/2000/svg" xmlns:xlink="http://www.w3.org/1999/xlink" x="0px" y="0px"
	 viewBox="0 0 184.5 188.5" enable-background="new 0 0 184.5 188.5" xml:space="preserve">
<path fill="#FF6666" d="M179.8,188.5H4.7c-2.6,0-4.7-2.1-4.7-4.7V4.7C0,2.1,2.1,0,4.7,0h175c2.6,0,4.7,2.1,4.7,4.7v179
	C184.5,186.4,182.4,188.5,179.8,188.5z"/>
<g id="ipad">
	<path fill="#FFFFFF" d="M118.9,108.9c0,1.3-0.9,2.3-2,2.3H55.4c-1.1,0-2-1-2-2.3V13.1c0-1.3,0.9-2.3,2-2.3h61.6c1.1,0,2,1,2,2.3
		L118.9,108.9L118.9,108.9z"/>
	<g>
		<g>
			<linearGradient id="XMLID_4_" gradientUnits="userSpaceOnUse" x1="123.4628" y1="82.5381" x2="48.8526" y2="39.4619">
				<stop  offset="0" style="stop-color:#FFFFFF"/>
				<stop  offset="1" style="stop-color:#000000"/>
			</linearGradient>
			<rect id="XMLID_1_" x="60.1" y="20" fill="url(#XMLID_4_)" width="52.1" height="82.1"/>
		</g>
		<g>
			<defs>
				<rect id="SVGID_3_" x="60.1" y="20" width="52.1" height="82.1"/>
			</defs>
			<linearGradient id="SVGID_1_" gradientUnits="userSpaceOnUse" x1="123.4628" y1="82.5381" x2="48.8526" y2="39.4619">
				<stop  offset="0" style="stop-color:#FFFFFF"/>
				<stop  offset="1" style="stop-color:#000000"/>
			</linearGradient>
			<use xlink:href="#SVGID_3_"  overflow="visible" fill="url(#SVGID_1_)"/>
			<clipPath id="SVGID_2_">
				<use xlink:href="#SVGID_3_"  overflow="visible"/>
			</clipPath>
			<linearGradient id="SVGID_4_" gradientUnits="userSpaceOnUse" x1="99.2147" y1="72.1824" x2="42.8951" y2="39.6662">
				<stop  offset="0" style="stop-color:#FFFFFF"/>
				<stop  offset="1" style="stop-color:#000000"/>
			</linearGradient>
			<polygon opacity="0.4" clip-path="url(#SVGID_2_)" fill="url(#SVGID_4_)" enable-background="new    " points="55.2,18.4 
				55.2,104.8 80.4,104.8 100.6,19.6 101.6,15.5 			"/>
		</g>
		<g>
			<linearGradient id="XMLID_5_" gradientUnits="userSpaceOnUse" x1="123.4628" y1="82.5381" x2="48.8526" y2="39.4619">
				<stop  offset="0" style="stop-color:#FFFFFF"/>
				<stop  offset="1" style="stop-color:#000000"/>
			</linearGradient>
			<rect id="XMLID_2_" x="60.1" y="20" fill="url(#XMLID_5_)" width="52.1" height="82.1"/>
		</g>
	</g>
	<rect x="85.1" y="14.7" fill="#D9A128" width="1.2" height="1.4"/>
	<ellipse fill="#FFFFFF" stroke="#000000" stroke-width="2" stroke-miterlimit="10" cx="86.2" cy="106.4" rx="1.9" ry="2.2"/>
</g>
<g>
	<path fill="#FFFFFF" d="M26.5,148h-5.3l-1.2,4h-2.9l5.5-17.1h2.5l5.4,17.1h-2.9L26.5,148z M21.9,145.6h3.9l-1.9-6.7L21.9,145.6z"/>
	<path fill="#FFFFFF" d="M35.7,145.5v6.5h-2.8v-17.1h5.7c0.9,0,1.6,0.1,2.4,0.4s1.3,0.6,1.9,1.1s0.9,1,1.2,1.7s0.4,1.4,0.4,2.2
		c0,0.8-0.1,1.5-0.4,2.2s-0.7,1.2-1.2,1.6s-1.1,0.8-1.9,1s-1.5,0.4-2.4,0.4H35.7z M35.7,143.2h2.9c0.5,0,0.9-0.1,1.3-0.2
		s0.7-0.3,1-0.6s0.5-0.6,0.6-0.9s0.2-0.8,0.2-1.2c0-0.4-0.1-0.9-0.2-1.2s-0.3-0.7-0.6-1s-0.6-0.5-1-0.6s-0.8-0.2-1.3-0.2h-2.9V143.2
		z"/>
	<path fill="#FFFFFF" d="M50.1,145.5v6.5h-2.8v-17.1H53c0.9,0,1.6,0.1,2.4,0.4s1.3,0.6,1.9,1.1s0.9,1,1.2,1.7s0.4,1.4,0.4,2.2
		c0,0.8-0.1,1.5-0.4,2.2s-0.7,1.2-1.2,1.6s-1.1,0.8-1.9,1s-1.5,0.4-2.4,0.4H50.1z M50.1,143.2H53c0.5,0,0.9-0.1,1.3-0.2
		s0.7-0.3,1-0.6s0.5-0.6,0.6-0.9s0.2-0.8,0.2-1.2c0-0.4-0.1-0.9-0.2-1.2s-0.3-0.7-0.6-1s-0.6-0.5-1-0.6s-0.8-0.2-1.3-0.2h-2.9V143.2
		z"/>
	<path fill="#FFFFFF" d="M75.7,152v-17.1h4.2c1.2,0,2.2,0.2,3.2,0.6s1.7,0.9,2.4,1.6s1.2,1.5,1.5,2.5s0.5,2,0.5,3.2v1.3
		c0,1.2-0.2,2.2-0.5,3.2s-0.9,1.8-1.5,2.5s-1.4,1.2-2.4,1.6s-2,0.6-3.1,0.6H75.7z M78.6,137.2v12.5H80c0.8,0,1.4-0.1,2-0.4
		s1.1-0.6,1.4-1.1s0.7-1.1,0.9-1.8s0.3-1.5,0.3-2.3v-1.3c0-0.8-0.1-1.6-0.3-2.3s-0.5-1.3-0.9-1.8s-0.9-0.9-1.5-1.2s-1.3-0.4-2.1-0.4
		H78.6z"/>
	<path fill="#FFFFFF" d="M100.3,144.3h-7v5.4h8.2v2.3h-11v-17.1h11v2.3h-8.1v4.8h7V144.3z"/>
	<path fill="#FFFFFF" d="M113.5,147.6c0-0.4-0.1-0.8-0.3-1.1s-0.4-0.6-0.7-0.8s-0.7-0.4-1.1-0.6s-0.9-0.3-1.4-0.5
		c-0.7-0.2-1.3-0.4-2-0.7s-1.2-0.6-1.7-1.1s-0.9-0.9-1.2-1.5s-0.5-1.2-0.5-1.9s0.2-1.4,0.5-2s0.7-1.1,1.3-1.5s1.1-0.7,1.9-0.9
		s1.4-0.3,2.2-0.3c0.8,0,1.6,0.1,2.3,0.4s1.3,0.6,1.9,1.1s1,1,1.3,1.6s0.5,1.3,0.5,2.1h-2.8c0-0.4-0.1-0.8-0.3-1.2s-0.3-0.7-0.6-0.9
		s-0.6-0.5-1-0.6s-0.8-0.2-1.3-0.2c-0.4,0-0.8,0.1-1.2,0.2s-0.7,0.3-0.9,0.5s-0.5,0.5-0.6,0.8s-0.2,0.6-0.2,1c0,0.4,0.1,0.7,0.3,1
		s0.5,0.5,0.8,0.8s0.7,0.4,1.1,0.6s0.9,0.3,1.3,0.4c0.7,0.2,1.4,0.5,2,0.8s1.2,0.7,1.7,1.1s0.9,0.9,1.2,1.5s0.4,1.2,0.4,2
		c0,0.8-0.2,1.4-0.5,2s-0.8,1.1-1.3,1.5s-1.2,0.7-1.9,0.9s-1.5,0.3-2.2,0.3c-0.5,0-1-0.1-1.6-0.2s-1-0.3-1.5-0.5s-0.9-0.5-1.3-0.8
		s-0.8-0.6-1.1-1s-0.5-0.8-0.7-1.3s-0.3-1-0.3-1.6h2.8c0,0.5,0.2,1,0.3,1.3s0.4,0.7,0.8,1s0.7,0.4,1.1,0.6s0.9,0.2,1.4,0.2
		c0.4,0,0.8-0.1,1.2-0.2s0.7-0.3,1-0.5s0.5-0.4,0.6-0.7S113.5,148,113.5,147.6z"/>
	<path fill="#FFFFFF" d="M119.4,134.9h10.1v2.3h-3.7v12.4h3.7v2.3h-10.1v-2.3h3.6v-12.4h-3.6V134.9z"/>
	<path fill="#FFFFFF" d="M144.9,149.9c-0.3,0.3-0.6,0.7-1,0.9s-0.8,0.5-1.3,0.8s-1,0.4-1.6,0.5s-1.2,0.2-1.8,0.2
		c-1,0-1.9-0.2-2.7-0.6s-1.5-0.9-2-1.6s-1-1.5-1.2-2.4s-0.4-1.9-0.4-3v-2.1c0-1.1,0.1-2.1,0.4-3s0.7-1.8,1.2-2.4s1.2-1.2,1.9-1.6
		s1.6-0.6,2.6-0.6c0.9,0,1.7,0.1,2.4,0.4s1.3,0.6,1.8,1s0.9,1,1.2,1.7s0.5,1.4,0.6,2.2h-2.8c-0.1-0.5-0.2-0.9-0.3-1.2
		s-0.3-0.7-0.6-0.9s-0.6-0.5-0.9-0.6s-0.8-0.2-1.3-0.2c-0.6,0-1.1,0.1-1.5,0.4s-0.8,0.7-1.1,1.2s-0.5,1.1-0.6,1.7s-0.2,1.3-0.2,2
		v2.1c0,0.7,0.1,1.4,0.2,2s0.4,1.2,0.6,1.7s0.7,0.9,1.1,1.2s1,0.4,1.7,0.5c0.3,0,0.5,0,0.8-0.1s0.5-0.1,0.8-0.2s0.5-0.2,0.7-0.3
		s0.4-0.3,0.5-0.5l0-3.4h-3.1v-2.2h5.8L144.9,149.9z"/>
	<path fill="#FFFFFF" d="M158.9,152h-2.8l-5.6-11.7l0,11.7h-2.8v-17.1h2.8l5.5,11.7l0-11.7h2.8V152z"/>
</g>
</svg>
