<?xml version="1.0" encoding="utf-8"?>
<!-- Generator: Adobe Illustrator 18.0.0, SVG Export Plug-In . SVG Version: 6.00 Build 0)  -->
<!DOCTYPE svg PUBLIC "-//W3C//DTD SVG 1.1//EN" "http://www.w3.org/Graphics/SVG/1.1/DTD/svg11.dtd">
<svg version="1.1" id="Layer_1" xmlns="http://www.w3.org/2000/svg" xmlns:xlink="http://www.w3.org/1999/xlink" x="0px" y="0px"
	 viewBox="0 0 184.5 188.5" enable-background="new 0 0 184.5 188.5" xml:space="preserve">
<path fill="#99CC66" d="M179.8,188.5H4.7c-2.6,0-4.7-2.1-4.7-4.7V4.7C0,2.1,2.1,0,4.7,0h175c2.6,0,4.7,2.1,4.7,4.7v179
	C184.5,186.4,182.4,188.5,179.8,188.5z"/>
<g>
	<path fill="#FFFFFF" d="M37.5,150.2v-17.1h5.4c0.8,0,1.6,0.1,2.3,0.3s1.3,0.5,1.9,0.8s1,0.9,1.3,1.4s0.5,1.3,0.4,2.1
		c0,0.8-0.2,1.6-0.7,2.2s-1.1,1.1-1.9,1.4c0.5,0.1,0.9,0.3,1.3,0.6s0.7,0.5,0.9,0.9s0.4,0.7,0.6,1.1s0.2,0.9,0.2,1.3
		c0,0.8-0.1,1.5-0.4,2.1s-0.7,1.1-1.2,1.5s-1.2,0.7-1.9,0.9s-1.5,0.3-2.3,0.3H37.5z M40.3,140.4H43c0.4,0,0.8-0.1,1.2-0.2
		s0.7-0.3,0.9-0.5s0.5-0.5,0.6-0.8s0.2-0.6,0.2-1c0-0.4-0.1-0.8-0.2-1.1s-0.4-0.6-0.6-0.8s-0.6-0.3-1-0.4s-0.8-0.1-1.2-0.1h-2.7
		V140.4z M40.3,142.5v5.4h3.1c0.4,0,0.9-0.1,1.2-0.2s0.7-0.3,0.9-0.5s0.5-0.5,0.6-0.8s0.2-0.7,0.2-1.1c0-0.4-0.1-0.8-0.2-1.2
		s-0.3-0.6-0.6-0.9s-0.6-0.4-0.9-0.5s-0.8-0.2-1.2-0.2H40.3z"/>
	<path fill="#FFFFFF" d="M57.6,143.6h-2.9v6.7H52v-17.1h5.4c0.9,0,1.7,0.1,2.4,0.3s1.4,0.5,1.9,1s1,1,1.3,1.6s0.4,1.4,0.4,2.3
		c0,0.6-0.1,1.1-0.2,1.6s-0.4,0.9-0.6,1.3s-0.6,0.7-1,1s-0.8,0.5-1.3,0.7l3.6,7.2v0.1h-3L57.6,143.6z M54.8,141.3h2.6
		c0.5,0,0.9-0.1,1.3-0.2s0.7-0.3,1-0.6s0.5-0.5,0.7-0.9s0.2-0.8,0.2-1.2c0-0.5-0.1-0.9-0.2-1.3s-0.4-0.7-0.6-0.9s-0.6-0.4-1-0.6
		s-0.8-0.2-1.3-0.2h-2.6V141.3z"/>
	<path fill="#FFFFFF" d="M74.6,146.3h-5.3l-1.2,4h-2.9l5.5-17.1h2.5l5.4,17.1h-2.9L74.6,146.3z M70,143.9h3.9l-1.9-6.7L70,143.9z"/>
	<path fill="#FFFFFF" d="M91.7,150.2h-2.8l-5.6-11.7l0,11.7h-2.8v-17.1h2.8l5.5,11.7l0-11.7h2.8V150.2z"/>
	<path fill="#FFFFFF" d="M95,150.2v-17.1h4.2c1.2,0,2.2,0.2,3.2,0.6s1.7,0.9,2.4,1.6s1.2,1.5,1.5,2.5s0.5,2,0.5,3.2v1.3
		c0,1.2-0.2,2.2-0.5,3.2s-0.9,1.8-1.5,2.5s-1.4,1.2-2.4,1.6s-2,0.6-3.1,0.6H95z M97.8,135.4V148h1.4c0.8,0,1.4-0.1,2-0.4
		s1.1-0.6,1.4-1.1s0.7-1.1,0.9-1.8s0.3-1.5,0.3-2.3V141c0-0.8-0.1-1.6-0.3-2.3s-0.5-1.3-0.9-1.8s-0.9-0.9-1.5-1.2s-1.3-0.4-2.1-0.4
		H97.8z"/>
	<path fill="#FFFFFF" d="M109.9,133.2H120v2.3h-3.7v12.4h3.7v2.3h-10.1v-2.3h3.6v-12.4h-3.6V133.2z"/>
	<path fill="#FFFFFF" d="M135,150.2h-2.8l-5.6-11.7l0,11.7h-2.8v-17.1h2.8l5.5,11.7l0-11.7h2.8V150.2z"/>
	<path fill="#FFFFFF" d="M149.8,148.1c-0.3,0.3-0.6,0.7-1,0.9s-0.8,0.5-1.3,0.8s-1,0.4-1.6,0.5s-1.2,0.2-1.8,0.2
		c-1,0-1.9-0.2-2.7-0.6s-1.5-0.9-2-1.6s-1-1.5-1.2-2.4s-0.4-1.9-0.4-3v-2.1c0-1.1,0.1-2.1,0.4-3s0.7-1.8,1.2-2.4s1.2-1.2,1.9-1.6
		s1.6-0.6,2.6-0.6c0.9,0,1.7,0.1,2.4,0.4s1.3,0.6,1.8,1s0.9,1,1.2,1.7s0.5,1.4,0.6,2.2H147c-0.1-0.5-0.2-0.9-0.3-1.2
		s-0.3-0.7-0.6-0.9s-0.6-0.5-0.9-0.6s-0.8-0.2-1.3-0.2c-0.6,0-1.1,0.1-1.5,0.4s-0.8,0.7-1.1,1.2s-0.5,1.1-0.6,1.7s-0.2,1.3-0.2,2
		v2.1c0,0.7,0.1,1.4,0.2,2s0.4,1.2,0.6,1.7s0.7,0.9,1.1,1.2s1,0.4,1.7,0.5c0.3,0,0.5,0,0.8-0.1s0.5-0.1,0.8-0.2s0.5-0.2,0.7-0.3
		s0.4-0.3,0.5-0.5l0-3.4h-3.1v-2.2h5.8L149.8,148.1z"/>
</g>
<g>
	<path fill="#FFFFFF" d="M99.8,29.8H84.4v-4.7c0-3.3-3.3-6-7.4-6c-4.1,0-7.4,2.7-7.4,6c0,3.3,3.3,6,7.4,6h22.7c1.4,0,2.5,0.9,2.5,2
		v4.3h1.6v-4.3C103.9,31.2,102.1,29.8,99.8,29.8z"/>
	<g>
		<g>
			<path d="M80.2,24c-0.2-0.4-0.6-0.6-1-0.7l-0.9-1.8c-0.1-0.2-0.4-0.3-0.6-0.2c-0.2,0.1-0.4,0.3-0.3,0.5L80,27
				c0.1,0.2,0.4,0.3,0.6,0.2c0.2-0.1,0.4-0.3,0.3-0.5l-0.8-1.6C80.4,24.8,80.4,24.4,80.2,24z"/>
		</g>
		<g>
			<path d="M77.1,22.8C77.1,22.8,77.1,22.8,77.1,22.8C77.1,22.9,77.1,22.9,77.1,22.8C77.1,22.9,77.1,22.9,77.1,22.8
				c-0.1,0.5-0.5,0.9-1,1.1l-1.5,0.5c-0.8,0.3-1.2,1-0.9,1.7c0.3,0.7,1.2,1,2,0.7l1.5-0.5c0.5-0.2,1.1-0.1,1.6,0.2v0c0,0,0,0,0,0
				c0,0,0.1,0,0.1,0c0,0,0-0.1,0-0.1l-0.3-0.5c-0.5-0.2-1.1-0.2-1.7,0l-0.5-0.9l-1.5,0.5c-0.2,0.1-0.3,0-0.4-0.1
				c-0.1-0.1,0-0.3,0.2-0.3l1.5-0.5c0.6-0.2,1-0.5,1.2-1l-0.3-0.5C77.3,22.8,77.2,22.8,77.1,22.8z"/>
		</g>
		<g>
			<path d="M77.9,27.7c-0.1-0.1-0.2-0.2-0.3-0.2c0,0-0.1,0-0.1,0c0-0.1,0-0.1,0-0.2c0,0,0-0.1-0.1-0.1c0,0,0,0,0,0c0,0,0,0,0,0
				c-0.2-0.2-0.5-0.3-0.7-0.2l-0.3,0.1c0,0,0,0,0,0l-0.2,0.1c-0.1,0-0.2,0.1-0.3,0.1l1.1,1.3c0,0,0.1,0.1,0.2,0l0.9-0.3
				c0.2-0.1,0.2-0.2,0.2-0.3c0,0,0,0,0,0C78.1,28,77.9,27.7,77.9,27.7z"/>
		</g>
	</g>
</g>
<g>
	<path fill="#FFFFFF" d="M126.4,26.8c-4.5,0-8.2,3-8.2,6.7v5.3h-15.4v1.3h23.6c4.5,0,8.2-3,8.2-6.7S130.9,26.8,126.4,26.8z"/>
	<g>
		<path d="M123,32.3h-0.6c-0.2,0-0.3,0.1-0.3,0.2v1.7c0,0.1,0.1,0.2,0.3,0.2h0.6c0.2,0,0.3-0.1,0.3-0.2v-1.7
			C123.3,32.4,123.1,32.3,123,32.3z M126.8,30.3h-0.6c-0.2,0-0.3,0.1-0.3,0.2v0.4l-1.8,1.4v2.2l0.4,0.4l1.3,1.1v0.4
			c0,0.1,0.1,0.2,0.3,0.2h0.6c0.2,0,0.3-0.1,0.3-0.2v-5.8C127.1,30.4,127,30.3,126.8,30.3z M128.3,31.2c-0.1-0.1-0.3,0-0.4,0.1
			c-0.1,0.1-0.1,0.3,0.1,0.3c0.8,0.4,1.2,1.1,1.2,1.8c0,0.7-0.5,1.4-1.2,1.8c-0.1,0.1-0.2,0.2-0.1,0.3c0.1,0.1,0.2,0.1,0.2,0.1
			c0.1,0,0.1,0,0.2,0c0.9-0.5,1.5-1.3,1.5-2.2C129.8,32.5,129.2,31.7,128.3,31.2z M128.5,33.4c0-0.4-0.2-0.7-0.4-1
			c-0.1-0.1-0.3-0.1-0.4,0c-0.1,0.1-0.1,0.2,0,0.3c0.2,0.2,0.3,0.4,0.3,0.7c0,0.3-0.1,0.5-0.3,0.7c-0.1,0.1-0.1,0.3,0,0.3
			c0.1,0,0.1,0.1,0.2,0.1c0.1,0,0.2,0,0.2-0.1C128.3,34.1,128.5,33.8,128.5,33.4z"/>
	</g>
</g>
<linearGradient id="SVGID_1_" gradientUnits="userSpaceOnUse" x1="136.2392" y1="363.0913" x2="140.3485" y2="363.0913" gradientTransform="matrix(1 0 0 -1 0 441.0642)">
	<stop  offset="0" style="stop-color:#FFFFFF"/>
	<stop  offset="7.440000e-002" style="stop-color:#FCFCFC"/>
	<stop  offset="0.1345" style="stop-color:#F2F2F2"/>
	<stop  offset="0.1896" style="stop-color:#E1E1E1"/>
	<stop  offset="0.2418" style="stop-color:#C9C9C9"/>
	<stop  offset="0.2918" style="stop-color:#AAAAAA"/>
	<stop  offset="0.3396" style="stop-color:#858585"/>
	<stop  offset="0.3571" style="stop-color:#757575"/>
	<stop  offset="0.5306" style="stop-color:#050001"/>
	<stop  offset="0.6633" style="stop-color:#757575"/>
	<stop  offset="0.6692" style="stop-color:#7A7A7A"/>
	<stop  offset="0.72" style="stop-color:#A3A3A3"/>
	<stop  offset="0.7722" style="stop-color:#C4C4C4"/>
	<stop  offset="0.8254" style="stop-color:#DEDEDE"/>
	<stop  offset="0.8801" style="stop-color:#F0F0F0"/>
	<stop  offset="0.9371" style="stop-color:#FBFBFB"/>
	<stop  offset="1" style="stop-color:#FFFFFF"/>
</linearGradient>
<rect x="136.2" y="77.3" opacity="0.7" fill="url(#SVGID_1_)" enable-background="new    " width="4.1" height="1.3"/>
<path fill="#FFFFFF" d="M159.6,83.1h-5.8v-2.5c0-1.8-1.8-3.3-4.1-3.3h-39v1.3h39c1.4,0,2.5,0.9,2.5,2l0,8.5c0,3.3,3.3,6,7.4,6
	c4.1,0,7.4-2.7,7.4-6C167,85.8,163.7,83.1,159.6,83.1z"/>
<path fill="#FFFFFF" d="M103.3,8.7c-4.5,0-8.2,3-8.2,6.7v25.3h1.6V22h6.6c4.5,0,8.2-3,8.2-6.7C111.6,11.7,107.9,8.7,103.3,8.7z"/>
<rect x="95.1" y="40.2" fill="#FFFFFF" width="1.6" height="19.5"/>
<linearGradient id="SVGID_2_" gradientUnits="userSpaceOnUse" x1="95.9484" y1="399.9826" x2="95.9484" y2="403.3081" gradientTransform="matrix(1 0 0 -1 0 441.0642)">
	<stop  offset="0" style="stop-color:#FFFFFF"/>
	<stop  offset="7.440000e-002" style="stop-color:#FCFCFC"/>
	<stop  offset="0.1345" style="stop-color:#F2F2F2"/>
	<stop  offset="0.1896" style="stop-color:#E1E1E1"/>
	<stop  offset="0.2418" style="stop-color:#C9C9C9"/>
	<stop  offset="0.2918" style="stop-color:#AAAAAA"/>
	<stop  offset="0.3396" style="stop-color:#858585"/>
	<stop  offset="0.3571" style="stop-color:#757575"/>
	<stop  offset="0.5306" style="stop-color:#050001"/>
	<stop  offset="0.6633" style="stop-color:#757575"/>
	<stop  offset="0.6692" style="stop-color:#7A7A7A"/>
	<stop  offset="0.72" style="stop-color:#A3A3A3"/>
	<stop  offset="0.7722" style="stop-color:#C4C4C4"/>
	<stop  offset="0.8254" style="stop-color:#DEDEDE"/>
	<stop  offset="0.8801" style="stop-color:#F0F0F0"/>
	<stop  offset="0.9371" style="stop-color:#FBFBFB"/>
	<stop  offset="1" style="stop-color:#FFFFFF"/>
</linearGradient>
<rect x="95.1" y="37.8" opacity="0.7" fill="url(#SVGID_2_)" enable-background="new    " width="1.6" height="3.3"/>
<path fill="#FFFFFF" d="M91.4,64.2h-1.6V42.1c0-1.8,1.8-3.3,4.1-3.3h9.1v1.3h-9.1c-1.4,0-2.5,0.9-2.5,2V64.2z"/>
<linearGradient id="SVGID_3_" gradientUnits="userSpaceOnUse" x1="101.018" y1="401.6662" x2="105.1273" y2="401.6662" gradientTransform="matrix(1 0 0 -1 0 441.0642)">
	<stop  offset="0" style="stop-color:#FFFFFF"/>
	<stop  offset="7.440000e-002" style="stop-color:#FCFCFC"/>
	<stop  offset="0.1345" style="stop-color:#F2F2F2"/>
	<stop  offset="0.1896" style="stop-color:#E1E1E1"/>
	<stop  offset="0.2418" style="stop-color:#C9C9C9"/>
	<stop  offset="0.2918" style="stop-color:#AAAAAA"/>
	<stop  offset="0.3396" style="stop-color:#858585"/>
	<stop  offset="0.3571" style="stop-color:#757575"/>
	<stop  offset="0.5306" style="stop-color:#050001"/>
	<stop  offset="0.6633" style="stop-color:#757575"/>
	<stop  offset="0.6692" style="stop-color:#7A7A7A"/>
	<stop  offset="0.72" style="stop-color:#A3A3A3"/>
	<stop  offset="0.7722" style="stop-color:#C4C4C4"/>
	<stop  offset="0.8254" style="stop-color:#DEDEDE"/>
	<stop  offset="0.8801" style="stop-color:#F0F0F0"/>
	<stop  offset="0.9371" style="stop-color:#FBFBFB"/>
	<stop  offset="1" style="stop-color:#FFFFFF"/>
</linearGradient>
<rect x="101" y="38.7" opacity="0.7" fill="url(#SVGID_3_)" enable-background="new    " width="4.1" height="1.3"/>
<rect x="102.3" y="37.1" fill="#FFFFFF" width="1.6" height="22.5"/>
<g>
	<rect x="73.1" y="46.1" opacity="0.7" fill="#FFFFFF" enable-background="new    " width="1.6" height="3.3"/>
	<g>
		<path fill="#FFFFFF" d="M70.7,35.7H44.5v-5.3c0-3.7-3.7-6.7-8.2-6.7c-4.5,0-8.2,3-8.2,6.7c0,3.7,3.7,6.7,8.2,6.7h34.4
			c1.4,0,2.5,0.9,2.5,2v18.1h1.6V39.1C74.8,37.2,72.9,35.7,70.7,35.7z"/>
		<g>
			<g>
				<path d="M40.2,28.2c-0.8-0.7-2.1-0.7-3,0l-1,0.8l-1-0.8c-0.8-0.7-2.1-0.7-3,0c-0.8,0.7-0.8,1.7,0,2.4l3.9,3.2l3.9-3.2
					C41,30,41,28.9,40.2,28.2z"/>
			</g>
		</g>
	</g>
</g>
<g>
	<path fill="#FFFFFF" d="M153.5,52.4c-4.5,0-8.2,3-8.2,6.7v5.3h-40v1.3h48.2c4.5,0,8.2-3,8.2-6.7C161.7,55.4,158,52.4,153.5,52.4z"
		/>
	<g>
		<g>
			<polygon points="157.1,56.7 149.8,56.7 153.5,59.7 			"/>
		</g>
		<g>
			<path d="M153.7,60.2c-0.1,0-0.1,0.1-0.2,0.1c-0.1,0-0.2,0-0.2-0.1l-3.9-3.1v4c0,0.1,0.1,0.3,0.3,0.3h7.6c0.2,0,0.3-0.1,0.3-0.3
				v-4L153.7,60.2z"/>
		</g>
	</g>
</g>
<g>
	<path fill="#FFFFFF" d="M144.5,38.7c-3.2,0-5.8,2.1-5.8,4.7v3.3h-19.4c-2.3,0-4.1,1.5-4.1,3.3v17.1h1.6V50c0-1.1,1.1-2,2.5-2h25.1
		c3.2,0,5.8-2.1,5.8-4.7C150.2,40.8,147.7,38.7,144.5,38.7z"/>
	<g>
		<path d="M146.6,44.1c-0.3,0-0.6,0.1-0.8,0.3l-2.3-0.8c0,0,0,0,0,0c0-0.1,0-0.1,0-0.2l1.6-0.8c0.2,0.1,0.4,0.2,0.7,0.2
			c0.6,0,1.1-0.4,1.1-0.9c0-0.5-0.5-0.9-1.1-0.9c-0.6,0-1.1,0.4-1.1,0.9c0,0.1,0,0.1,0,0.2l-1.6,0.8c-0.2-0.1-0.4-0.2-0.7-0.2
			c-0.6,0-1.1,0.4-1.1,0.9c0,0.5,0.5,0.9,1.1,0.9c0.3,0,0.6-0.1,0.8-0.3l2.3,0.8c0,0,0,0,0,0c0,0.5,0.5,0.9,1.1,0.9
			c0.6,0,1.1-0.4,1.1-0.9C147.8,44.5,147.2,44.1,146.6,44.1z"/>
	</g>
</g>
<g>
	<path fill="#FFFFFF" d="M45.4,79.2h41.9v-1.3H45.4c-2.3,0-4.1,1.5-4.1,3.3v20.1c0,3.7,3.7,6.7,8.2,6.7c4.5,0,8.2-3,8.2-6.7
		c0-3.7-3.7-6.7-8.2-6.7h-6.6V81.2C42.9,80.1,44,79.2,45.4,79.2z"/>
	<path d="M50.2,103l-0.8,0.7c-0.7-0.2-1.3-0.5-1.8-0.9c-0.5-0.4-0.9-1-1.1-1.5l0.8-0.6c-0.2-0.4-0.4-0.9-0.4-1.4l-1.5-0.3
		c-0.6,1.6-0.1,3.3,1.4,4.6c1.5,1.2,3.7,1.6,5.7,1.2l-0.4-1.2C51.4,103.4,50.8,103.3,50.2,103z M50.6,101.8c0,0.2,0.2,0.4,0.5,0.4
		c0.3,0,0.5-0.2,0.5-0.4c0-1.2-1.3-2.3-2.8-2.3c-0.3,0-0.5,0.2-0.5,0.4c0,0.2,0.2,0.4,0.5,0.4C49.8,100.3,50.6,101,50.6,101.8z
		 M48.9,97.7c-0.3,0-0.5,0.2-0.5,0.4s0.2,0.4,0.5,0.4c2.2,0,4,1.5,4,3.2c0,0.2,0.2,0.4,0.5,0.4c0.3,0,0.5-0.2,0.5-0.4
		C53.9,99.5,51.7,97.7,48.9,97.7z"/>
</g>
<path fill="#FFFFFF" d="M145.9,95.9h-6.6V74.6c0-1.8-1.8-3.3-4.1-3.3H96.6v1.3h38.7c1.4,0,2.5,0.9,2.5,2v27.9c0,3.7,3.7,6.7,8.2,6.7
	c4.5,0,8.2-3,8.2-6.7S150.5,95.9,145.9,95.9z"/>
<g>
	<path d="M148.2,102.8c-0.2-0.1-0.4,0-0.5,0.2c-0.3,0.6-1,1.1-1.8,1.1c-0.2,0-0.4,0.1-0.4,0.3c0,0.2,0.2,0.3,0.4,0.3
		c1.2,0,2.2-0.6,2.5-1.5C148.5,103.1,148.4,102.9,148.2,102.8z M145.9,98.6c-2.7,0-4.9,1.8-4.9,4c0,2.2,2.2,4,4.9,4
		c2.7,0,4.9-1.8,4.9-4C150.9,100.4,148.7,98.6,145.9,98.6z M145.9,105.8c-2.2,0-4-1.4-4-3.2c0-1.8,1.8-3.2,4-3.2c2.2,0,4,1.4,4,3.2
		C149.9,104.4,148.1,105.8,145.9,105.8z M144.6,101.5c-0.3,0-0.6,0.2-0.6,0.5c0,0.3,0.3,0.5,0.6,0.5c0.3,0,0.6-0.2,0.6-0.5
		C145.2,101.7,144.9,101.5,144.6,101.5z M146.2,102.1c0.1,0,0.2,0,0.3-0.1c0.1-0.2,0.3-0.3,0.6-0.3c0.2,0,0.5,0.1,0.6,0.3
		c0,0,0.1,0.1,0.2,0.1c0,0,0.1,0,0.1,0c0.1,0,0.1-0.1,0.1-0.2c-0.2-0.3-0.5-0.4-0.9-0.4s-0.7,0.2-0.9,0.4
		C146.1,102,146.1,102.1,146.2,102.1z"/>
</g>
<g>
	<path fill="#FFFFFF" d="M79.6,47l-39.5,0c-4.1,0-7.4,2.7-7.4,6c0,3.3,3.3,6,7.4,6c4.1,0,7.4-2.7,7.4-6v-4.7h32.1
		c1.4,0,2.5,0.9,2.5,2v17.3h1.6V50.4C83.8,48.5,81.9,47,79.6,47z"/>
	<g>
		<path d="M37.9,50.8c0-0.1,0.1-0.2,0.2-0.1l5.7,2.3c0.1,0.1,0.1,0.1,0,0.2l-5.7,2.3c-0.1,0.1-0.2,0-0.2-0.1L37.9,50.8L37.9,50.8z"
			/>
	</g>
</g>
<g>
	<path fill="#FFFFFF" d="M34.7,65c-2.3,0-4.1,1.5-4.1,3.3v7.2h-5.8c-4.1,0-7.4,2.7-7.4,6c0,3.3,3.3,6,7.4,6c4.1,0,7.4-2.7,7.4-6
		V68.3c0-1.1,1.1-2,2.5-2h43.8V65L34.7,65L34.7,65z"/>
	<g>
		<path d="M28.3,78.5H23c-0.3,0-0.6,0.2-0.6,0.5v1h2.5c0.7,0,1.3,0.5,1.3,1v1.3h1l1.6,1.3c0.1,0,0.2,0,0.2,0c0,0,0-0.1,0-0.1V79
			C29,78.7,28.7,78.5,28.3,78.5z M24.9,80.5h-3.5c-0.3,0-0.6,0.2-0.6,0.5v3.3c0,0.1,0.1,0.1,0.2,0.1c0,0,0.1,0,0.1,0c0,0,0,0,0,0
			l0,0l1.3-0.9h2.5c0.3,0,0.6-0.2,0.6-0.5v-2C25.5,80.8,25.2,80.5,24.9,80.5z"/>
	</g>
</g>
<g>
	<path d="M124.6,52.4H64.3c-1.5,0-2.7,1-2.7,2.2v33.5h65.7V54.6C127.3,53.4,126.1,52.4,124.6,52.4z"/>
	<rect x="65.7" y="55.7" fill="#FFFFFF" width="57.5" height="27.7"/>
	<linearGradient id="SVGID_4_" gradientUnits="userSpaceOnUse" x1="54.7427" y1="87.8897" x2="134.1889" y2="87.8897">
		<stop  offset="0" style="stop-color:#FFFFFF"/>
		<stop  offset="1" style="stop-color:#000000"/>
	</linearGradient>
	<path fill="url(#SVGID_4_)" d="M103.4,85.7c-0.4,0-0.7,0.2-0.7,0.6c0,0.3-0.3,0.6-0.7,0.6H86.9c-0.4,0-0.7-0.2-0.7-0.6
		c0-0.3-0.3-0.6-0.7-0.6h-30c-0.5,0-0.8,0.3-0.8,0.7v3.1c0,0.4,0.4,0.7,0.8,0.7h77.8c0.5,0,0.8-0.3,0.8-0.7v-3.1
		c0-0.4-0.4-0.7-0.8-0.7H103.4z"/>
</g>
<g>
	<path d="M161.9,90.8h-4.5c-0.9,0-1.6-0.6-1.6-1.3c0-0.3,0.2-0.7,0.5-0.9c0.2-0.2,0.5-0.3,0.8-0.4c0,0,0,0,0,0
		c0-1.1,1.1-2.1,2.6-2.1s2.6,0.9,2.6,2.1c0,0,0,0,0,0c0.7,0.1,1.3,0.6,1.3,1.3C163.5,90.2,162.8,90.8,161.9,90.8z"/>
</g>
<path d="M103.3,11.4c-2.7,0-4.9,1.8-4.9,4c0,2.2,2.2,4,4.9,4s4.9-1.8,4.9-4C108.3,13.1,106.1,11.4,103.3,11.4z M104.7,13.5
	c0.6,0,1.1,0.4,1.1,0.9c0,0.1-0.1,0.2-0.2,0.2c-0.1,0-0.2-0.1-0.2-0.2c0-0.3-0.3-0.6-0.8-0.6c-0.4,0-0.8,0.3-0.8,0.6
	c0,0.1-0.1,0.2-0.2,0.2s-0.2-0.1-0.2-0.2C103.5,13.9,104,13.5,104.7,13.5z M102,13.5c0.6,0,1.1,0.4,1.1,0.9c0,0.1-0.1,0.2-0.2,0.2
	c-0.1,0-0.2-0.1-0.2-0.2c0-0.3-0.3-0.6-0.8-0.6c-0.4,0-0.8,0.3-0.8,0.6c0,0.1-0.1,0.2-0.2,0.2s-0.2-0.1-0.2-0.2
	C100.9,13.9,101.4,13.5,102,13.5z M103.3,17.8c-1.5,0-2.8-0.9-3-2.1c0-0.2,0.1-0.3,0.3-0.3c0.2,0,0.4,0.1,0.4,0.3
	c0.2,0.9,1.1,1.6,2.2,1.6s2.1-0.7,2.2-1.6c0-0.2,0.2-0.3,0.4-0.3c0.2,0,0.4,0.2,0.3,0.3C106.1,16.9,104.8,17.8,103.3,17.8z"/>
<path d="M101.9,68.1c-0.9-0.2-1.7-0.5-2.5-0.8c-0.5-0.2-0.6-0.5-0.3-0.9c0.3-0.5,0.5-0.8,0.8-1.4c2.2-3.5-1.3-5-2.1-3.3
	c-0.1,0.3-0.2,0.8-0.3,1.1c-0.9,2.6-3.3,5.3-6.7,6.4l0.5,6.3c1.6,0,3.1,0.2,3.8,0.3c0.9,0.2,1.8,0.3,2.7,0.3
	c0.8,0.1,1.6,0.1,2.4,0.1c0.7,0,1.3-0.3,1.5-1c0.1-0.2,0.2-0.4,0.4-0.4c0.6-0.3,0.7-0.7,0.8-1.2c0.1-0.3,0.3-0.6,0.4-1
	c0.1-0.4,0.3-0.8,0.3-1.2c0.1-0.3-0.1-0.7,0-1C104,69.2,103.4,68.5,101.9,68.1z M88.9,68.9l-1.7,0.1c-0.4,0-0.6,0.3-0.6,0.6l0.5,6.5
	c0,0.3,0.3,0.5,0.7,0.5l1.7-0.1c0.4,0,0.6-0.3,0.6-0.6l-0.5-6.5C89.5,69.1,89.2,68.8,88.9,68.9z"/>
</svg>
