<?xml version="1.0" encoding="utf-8"?>
<!-- Generator: Adobe Illustrator 18.0.0, SVG Export Plug-In . SVG Version: 6.00 Build 0)  -->
<!DOCTYPE svg PUBLIC "-//W3C//DTD SVG 1.1//EN" "http://www.w3.org/Graphics/SVG/1.1/DTD/svg11.dtd">
<svg version="1.1" id="Layer_1" xmlns="http://www.w3.org/2000/svg" xmlns:xlink="http://www.w3.org/1999/xlink" x="0px" y="0px"
	 viewBox="0 0 149.6 141.8" enable-background="new 0 0 149.6 141.8" xml:space="preserve">
<g>
	<path fill="#FFFFFF" d="M20,141.5v-17.1h5.4c0.8,0,1.6,0.1,2.3,0.3s1.3,0.5,1.9,0.8s1,0.9,1.3,1.4s0.5,1.3,0.4,2.1
		c0,0.8-0.2,1.6-0.7,2.2s-1.1,1.1-1.9,1.4c0.5,0.1,0.9,0.3,1.3,0.6s0.7,0.5,0.9,0.9s0.4,0.7,0.6,1.1s0.2,0.9,0.2,1.3
		c0,0.8-0.1,1.5-0.4,2.1s-0.7,1.1-1.2,1.5s-1.2,0.7-1.9,0.9s-1.5,0.3-2.3,0.3H20z M22.9,131.7h2.7c0.4,0,0.8-0.1,1.2-0.2
		s0.7-0.3,0.9-0.5s0.5-0.5,0.6-0.8s0.2-0.6,0.2-1c0-0.4-0.1-0.8-0.2-1.1c-0.1-0.3-0.4-0.6-0.6-0.8s-0.6-0.3-1-0.4s-0.8-0.1-1.2-0.1
		h-2.7V131.7z M22.9,133.8v5.4h3.1c0.4,0,0.9-0.1,1.2-0.2s0.7-0.3,0.9-0.5s0.5-0.5,0.6-0.8s0.2-0.7,0.2-1.1c0-0.4-0.1-0.8-0.2-1.2
		s-0.3-0.6-0.6-0.9s-0.6-0.4-0.9-0.5s-0.8-0.2-1.2-0.2H22.9z"/>
	<path fill="#FFFFFF" d="M40.2,134.9h-2.9v6.7h-2.8v-17.1h5.4c0.9,0,1.7,0.1,2.4,0.3s1.4,0.5,1.9,1s1,1,1.3,1.6
		c0.3,0.6,0.4,1.4,0.4,2.3c0,0.6-0.1,1.1-0.2,1.6s-0.4,0.9-0.6,1.3s-0.6,0.7-1,1s-0.8,0.5-1.3,0.7l3.6,7.2v0.1h-3L40.2,134.9z
		 M37.3,132.6h2.6c0.5,0,0.9-0.1,1.3-0.2s0.7-0.3,1-0.6s0.5-0.5,0.7-0.9s0.2-0.8,0.2-1.2c0-0.5-0.1-0.9-0.2-1.3s-0.4-0.7-0.6-0.9
		s-0.6-0.4-1-0.6s-0.8-0.2-1.3-0.2h-2.6V132.6z"/>
	<path fill="#FFFFFF" d="M57.1,137.6h-5.3l-1.2,4h-2.9l5.5-17.1h2.5l5.4,17.1h-2.9L57.1,137.6z M52.5,135.2h3.9l-1.9-6.7L52.5,135.2
		z"/>
	<path fill="#FFFFFF" d="M74.3,141.5h-2.8l-5.6-11.7l0,11.7H63v-17.1h2.8l5.5,11.7l0-11.7h2.8V141.5z"/>
	<path fill="#FFFFFF" d="M77.5,141.5v-17.1h4.2c1.2,0,2.2,0.2,3.2,0.6s1.7,0.9,2.4,1.6s1.2,1.5,1.5,2.5s0.5,2,0.5,3.2v1.3
		c0,1.2-0.2,2.2-0.5,3.2s-0.9,1.8-1.5,2.5s-1.4,1.2-2.4,1.6s-2,0.6-3.1,0.6H77.5z M80.4,126.8v12.5h1.4c0.8,0,1.4-0.1,2-0.4
		s1.1-0.6,1.4-1.1s0.7-1.1,0.9-1.8s0.3-1.5,0.3-2.3v-1.3c0-0.8-0.1-1.6-0.3-2.3s-0.5-1.3-0.9-1.8c-0.4-0.5-0.9-0.9-1.5-1.2
		s-1.3-0.4-2.1-0.4H80.4z"/>
	<path fill="#FFFFFF" d="M92.4,124.5h10.1v2.3h-3.7v12.4h3.7v2.3H92.4v-2.3H96v-12.4h-3.6V124.5z"/>
	<path fill="#FFFFFF" d="M117.5,141.5h-2.8l-5.6-11.7l0,11.7h-2.8v-17.1h2.8l5.5,11.7l0-11.7h2.8V141.5z"/>
	<path fill="#FFFFFF" d="M132.3,139.4c-0.3,0.3-0.6,0.7-1,0.9s-0.8,0.5-1.3,0.8s-1,0.4-1.6,0.5c-0.6,0.1-1.2,0.2-1.8,0.2
		c-1,0-1.9-0.2-2.7-0.6s-1.5-0.9-2-1.6s-1-1.5-1.2-2.4s-0.4-1.9-0.4-3V132c0-1.1,0.1-2.1,0.4-3s0.7-1.8,1.2-2.4s1.2-1.2,1.9-1.6
		s1.6-0.6,2.6-0.6c0.9,0,1.7,0.1,2.4,0.4s1.3,0.6,1.8,1s0.9,1,1.2,1.7s0.5,1.4,0.6,2.2h-2.8c-0.1-0.5-0.2-0.9-0.3-1.2
		c-0.1-0.4-0.3-0.7-0.6-0.9s-0.6-0.5-0.9-0.6c-0.4-0.1-0.8-0.2-1.3-0.2c-0.6,0-1.1,0.1-1.5,0.4s-0.8,0.7-1.1,1.2
		c-0.3,0.5-0.5,1.1-0.6,1.7s-0.2,1.3-0.2,2v2.1c0,0.7,0.1,1.4,0.2,2s0.4,1.2,0.6,1.7s0.7,0.9,1.1,1.2s1,0.4,1.7,0.5
		c0.3,0,0.5,0,0.8-0.1s0.5-0.1,0.8-0.2s0.5-0.2,0.7-0.3s0.4-0.3,0.5-0.5l0-3.4h-3.1v-2.2h5.8L132.3,139.4z"/>
</g>
<g>
	<path fill="#FFFFFF" d="M82.3,21.1H67v-4.7c0-3.3-3.3-6-7.4-6s-7.4,2.7-7.4,6c0,3.3,3.3,6,7.4,6h22.7c1.4,0,2.5,0.9,2.5,2v4.3h1.6
		v-4.3C86.4,22.6,84.6,21.1,82.3,21.1z"/>
	<g>
		<g>
			<path d="M62.8,15.4c-0.2-0.4-0.6-0.6-1-0.7l-0.9-1.8c-0.1-0.2-0.4-0.3-0.6-0.2c-0.2,0.1-0.4,0.3-0.3,0.5l2.6,5.2
				c0.1,0.2,0.4,0.3,0.6,0.2c0.2-0.1,0.4-0.3,0.3-0.5l-0.8-1.6C62.9,16.1,63,15.7,62.8,15.4z"/>
		</g>
		<g>
			<path d="M59.7,14.1C59.6,14.1,59.6,14.1,59.7,14.1C59.6,14.2,59.6,14.2,59.7,14.1C59.6,14.2,59.6,14.2,59.7,14.1
				c-0.1,0.5-0.5,0.9-1,1.1l-1.5,0.5c-0.8,0.3-1.2,1-0.9,1.7c0.3,0.7,1.2,1,2,0.7l1.5-0.5c0.5-0.2,1.1-0.1,1.6,0.2v0c0,0,0,0,0,0
				c0,0,0.1,0,0.1,0c0,0,0-0.1,0-0.1l-0.3-0.5c-0.5-0.2-1.1-0.2-1.7,0l-0.5-0.9l-1.5,0.5c-0.2,0.1-0.3,0-0.4-0.1
				c-0.1-0.1,0-0.3,0.2-0.3l1.5-0.5c0.6-0.2,1-0.5,1.2-1l-0.3-0.5C59.8,14.1,59.7,14.1,59.7,14.1z"/>
		</g>
		<g>
			<path d="M60.4,19c-0.1-0.1-0.2-0.2-0.3-0.2c0,0-0.1,0-0.1,0c0-0.1,0-0.1,0-0.2c0,0,0-0.1-0.1-0.1c0,0,0,0,0,0c0,0,0,0,0,0
				c-0.2-0.2-0.5-0.3-0.7-0.2l-0.3,0.1c0,0,0,0,0,0l-0.2,0.1c-0.1,0-0.2,0.1-0.3,0.1l1.1,1.3c0,0,0.1,0.1,0.2,0l0.9-0.3
				c0.2-0.1,0.2-0.2,0.2-0.3c0,0,0,0,0,0C60.6,19.3,60.4,19,60.4,19z"/>
		</g>
	</g>
</g>
<g>
	<path fill="#FFFFFF" d="M108.9,18.1c-4.5,0-8.2,3-8.2,6.7V30H85.3v1.3h23.6c4.5,0,8.2-3,8.2-6.7S113.4,18.1,108.9,18.1z"/>
	<g>
		<path d="M105.5,23.6h-0.6c-0.2,0-0.3,0.1-0.3,0.2v1.7c0,0.1,0.1,0.2,0.3,0.2h0.6c0.2,0,0.3-0.1,0.3-0.2v-1.7
			C105.8,23.7,105.7,23.6,105.5,23.6z M109.4,21.6h-0.6c-0.2,0-0.3,0.1-0.3,0.2v0.4l-1.8,1.4v2.2l0.4,0.4l1.3,1.1v0.4
			c0,0.1,0.1,0.2,0.3,0.2h0.6c0.2,0,0.3-0.1,0.3-0.2v-5.8C109.7,21.7,109.5,21.6,109.4,21.6z M110.9,22.5c-0.1-0.1-0.3,0-0.4,0.1
			c-0.1,0.1-0.1,0.3,0.1,0.3c0.8,0.4,1.2,1.1,1.2,1.8c0,0.7-0.5,1.4-1.2,1.8c-0.1,0.1-0.2,0.2-0.1,0.3c0.1,0.1,0.2,0.1,0.2,0.1
			c0.1,0,0.1,0,0.2,0c0.9-0.5,1.5-1.3,1.5-2.2C112.3,23.8,111.8,23,110.9,22.5z M111,24.7c0-0.4-0.2-0.7-0.4-1
			c-0.1-0.1-0.3-0.1-0.4,0c-0.1,0.1-0.1,0.2,0,0.3c0.2,0.2,0.3,0.4,0.3,0.7c0,0.3-0.1,0.5-0.3,0.7c-0.1,0.1-0.1,0.3,0,0.3
			c0.1,0,0.1,0.1,0.2,0.1c0.1,0,0.2,0,0.2-0.1C110.8,25.4,111,25.1,111,24.7z"/>
	</g>
</g>
<linearGradient id="SVGID_1_" gradientUnits="userSpaceOnUse" x1="118.7784" y1="352.8089" x2="122.8877" y2="352.8089" gradientTransform="matrix(1 0 0 -1 0 422.0866)">
	<stop  offset="0" style="stop-color:#FFFFFF"/>
	<stop  offset="7.440000e-002" style="stop-color:#FCFCFC"/>
	<stop  offset="0.1345" style="stop-color:#F2F2F2"/>
	<stop  offset="0.1896" style="stop-color:#E1E1E1"/>
	<stop  offset="0.2418" style="stop-color:#C9C9C9"/>
	<stop  offset="0.2918" style="stop-color:#AAAAAA"/>
	<stop  offset="0.3396" style="stop-color:#858585"/>
	<stop  offset="0.3571" style="stop-color:#757575"/>
	<stop  offset="0.5306" style="stop-color:#050001"/>
	<stop  offset="0.6633" style="stop-color:#757575"/>
	<stop  offset="0.6692" style="stop-color:#7A7A7A"/>
	<stop  offset="0.72" style="stop-color:#A3A3A3"/>
	<stop  offset="0.7722" style="stop-color:#C4C4C4"/>
	<stop  offset="0.8254" style="stop-color:#DEDEDE"/>
	<stop  offset="0.8801" style="stop-color:#F0F0F0"/>
	<stop  offset="0.9371" style="stop-color:#FBFBFB"/>
	<stop  offset="1" style="stop-color:#FFFFFF"/>
</linearGradient>
<rect x="118.8" y="68.6" opacity="0.7" fill="url(#SVGID_1_)" enable-background="new    " width="4.1" height="1.3"/>
<path fill="#FFFFFF" d="M142.2,74.4h-5.8v-2.5c0-1.8-1.8-3.3-4.1-3.3h-39v1.3h39c1.4,0,2.5,0.9,2.5,2l0,8.5c0,3.3,3.3,6,7.4,6
	c4.1,0,7.4-2.7,7.4-6C149.6,77.1,146.3,74.4,142.2,74.4z"/>
<path fill="#FFFFFF" d="M85.9,0c-4.5,0-8.2,3-8.2,6.7V32h1.6V13.3h6.6c4.5,0,8.2-3,8.2-6.7C94.1,3,90.4,0,85.9,0z"/>
<rect x="77.7" y="31.5" fill="#FFFFFF" width="1.6" height="19.5"/>
<linearGradient id="SVGID_2_" gradientUnits="userSpaceOnUse" x1="78.4876" y1="389.7002" x2="78.4876" y2="393.0256" gradientTransform="matrix(1 0 0 -1 0 422.0866)">
	<stop  offset="0" style="stop-color:#FFFFFF"/>
	<stop  offset="7.440000e-002" style="stop-color:#FCFCFC"/>
	<stop  offset="0.1345" style="stop-color:#F2F2F2"/>
	<stop  offset="0.1896" style="stop-color:#E1E1E1"/>
	<stop  offset="0.2418" style="stop-color:#C9C9C9"/>
	<stop  offset="0.2918" style="stop-color:#AAAAAA"/>
	<stop  offset="0.3396" style="stop-color:#858585"/>
	<stop  offset="0.3571" style="stop-color:#757575"/>
	<stop  offset="0.5306" style="stop-color:#050001"/>
	<stop  offset="0.6633" style="stop-color:#757575"/>
	<stop  offset="0.6692" style="stop-color:#7A7A7A"/>
	<stop  offset="0.72" style="stop-color:#A3A3A3"/>
	<stop  offset="0.7722" style="stop-color:#C4C4C4"/>
	<stop  offset="0.8254" style="stop-color:#DEDEDE"/>
	<stop  offset="0.8801" style="stop-color:#F0F0F0"/>
	<stop  offset="0.9371" style="stop-color:#FBFBFB"/>
	<stop  offset="1" style="stop-color:#FFFFFF"/>
</linearGradient>
<rect x="77.7" y="29.1" opacity="0.7" fill="url(#SVGID_2_)" enable-background="new    " width="1.6" height="3.3"/>
<path fill="#FFFFFF" d="M74,55.5h-1.6V33.4c0-1.8,1.8-3.3,4.1-3.3h9.1v1.3h-9.1c-1.4,0-2.5,0.9-2.5,2V55.5z"/>
<linearGradient id="SVGID_3_" gradientUnits="userSpaceOnUse" x1="83.5572" y1="391.3838" x2="87.6665" y2="391.3838" gradientTransform="matrix(1 0 0 -1 0 422.0866)">
	<stop  offset="0" style="stop-color:#FFFFFF"/>
	<stop  offset="7.440000e-002" style="stop-color:#FCFCFC"/>
	<stop  offset="0.1345" style="stop-color:#F2F2F2"/>
	<stop  offset="0.1896" style="stop-color:#E1E1E1"/>
	<stop  offset="0.2418" style="stop-color:#C9C9C9"/>
	<stop  offset="0.2918" style="stop-color:#AAAAAA"/>
	<stop  offset="0.3396" style="stop-color:#858585"/>
	<stop  offset="0.3571" style="stop-color:#757575"/>
	<stop  offset="0.5306" style="stop-color:#050001"/>
	<stop  offset="0.6633" style="stop-color:#757575"/>
	<stop  offset="0.6692" style="stop-color:#7A7A7A"/>
	<stop  offset="0.72" style="stop-color:#A3A3A3"/>
	<stop  offset="0.7722" style="stop-color:#C4C4C4"/>
	<stop  offset="0.8254" style="stop-color:#DEDEDE"/>
	<stop  offset="0.8801" style="stop-color:#F0F0F0"/>
	<stop  offset="0.9371" style="stop-color:#FBFBFB"/>
	<stop  offset="1" style="stop-color:#FFFFFF"/>
</linearGradient>
<rect x="83.6" y="30" opacity="0.7" fill="url(#SVGID_3_)" enable-background="new    " width="4.1" height="1.3"/>
<rect x="84.8" y="28.4" fill="#FFFFFF" width="1.6" height="22.5"/>
<g>
	<rect x="55.7" y="37.4" opacity="0.7" fill="#FFFFFF" enable-background="new    " width="1.6" height="3.3"/>
	<g>
		<path fill="#FFFFFF" d="M53.2,27H27v-5.3c0-3.7-3.7-6.7-8.2-6.7c-4.5,0-8.2,3-8.2,6.7c0,3.7,3.7,6.7,8.2,6.7h34.4
			c1.4,0,2.5,0.9,2.5,2v18.1h1.6V30.4C57.3,28.5,55.5,27,53.2,27z"/>
		<g>
			<g>
				<path d="M22.7,19.5c-0.8-0.7-2.1-0.7-3,0l-1,0.8l-1-0.8c-0.8-0.7-2.1-0.7-3,0c-0.8,0.7-0.8,1.7,0,2.4l3.9,3.2l3.9-3.2
					C23.5,21.3,23.5,20.2,22.7,19.5z"/>
			</g>
		</g>
	</g>
</g>
<g>
	<path fill="#FFFFFF" d="M136,43.7c-4.5,0-8.2,3-8.2,6.7v5.3h-40V57H136c4.5,0,8.2-3,8.2-6.7C144.2,46.7,140.5,43.7,136,43.7z"/>
	<g>
		<g>
			<polygon points="139.7,48 132.4,48 136,51 			"/>
		</g>
		<g>
			<path d="M136.2,51.5c-0.1,0-0.1,0.1-0.2,0.1c-0.1,0-0.2,0-0.2-0.1l-3.9-3.1v4c0,0.1,0.1,0.3,0.3,0.3h7.6c0.2,0,0.3-0.1,0.3-0.3
				v-4L136.2,51.5z"/>
		</g>
	</g>
</g>
<g>
	<path fill="#FFFFFF" d="M127,30c-3.2,0-5.8,2.1-5.8,4.7V38h-19.4c-2.3,0-4.1,1.5-4.1,3.3v17.1h1.6V41.3c0-1.1,1.1-2,2.5-2H127
		c3.2,0,5.8-2.1,5.8-4.7C132.8,32.1,130.2,30,127,30z"/>
	<g>
		<path d="M129.2,35.4c-0.3,0-0.6,0.1-0.8,0.3l-2.3-0.8c0,0,0,0,0,0c0-0.1,0-0.1,0-0.2l1.6-0.8c0.2,0.1,0.4,0.2,0.7,0.2
			c0.6,0,1.1-0.4,1.1-0.9c0-0.5-0.5-0.9-1.1-0.9c-0.6,0-1.1,0.4-1.1,0.9c0,0.1,0,0.1,0,0.2l-1.6,0.8c-0.2-0.1-0.4-0.2-0.7-0.2
			c-0.6,0-1.1,0.4-1.1,0.9c0,0.5,0.5,0.9,1.1,0.9c0.3,0,0.6-0.1,0.8-0.3l2.3,0.8c0,0,0,0,0,0c0,0.5,0.5,0.9,1.1,0.9
			c0.6,0,1.1-0.4,1.1-0.9C130.3,35.8,129.8,35.4,129.2,35.4z"/>
	</g>
</g>
<g>
	<path fill="#FFFFFF" d="M27.9,70.5h41.9v-1.3H27.9c-2.3,0-4.1,1.5-4.1,3.3v20.1c0,3.7,3.7,6.7,8.2,6.7c4.5,0,8.2-3,8.2-6.7
		c0-3.7-3.7-6.7-8.2-6.7h-6.6V72.5C25.5,71.4,26.6,70.5,27.9,70.5z"/>
	<path d="M32.7,94.4L31.9,95c-0.7-0.2-1.3-0.5-1.8-0.9c-0.5-0.4-0.9-1-1.1-1.5l0.8-0.6c-0.2-0.4-0.4-0.9-0.4-1.4l-1.5-0.3
		c-0.6,1.6-0.1,3.3,1.4,4.6C30.8,96,33,96.4,35,96l-0.4-1.2C33.9,94.7,33.4,94.6,32.7,94.4z M33.2,93.1c0,0.2,0.2,0.4,0.5,0.4
		c0.3,0,0.5-0.2,0.5-0.4c0-1.2-1.3-2.3-2.8-2.3c-0.3,0-0.5,0.2-0.5,0.4s0.2,0.4,0.5,0.4C32.4,91.6,33.2,92.3,33.2,93.1z M31.4,89
		c-0.3,0-0.5,0.2-0.5,0.4s0.2,0.4,0.5,0.4c2.2,0,4,1.5,4,3.2c0,0.2,0.2,0.4,0.5,0.4c0.3,0,0.5-0.2,0.5-0.4
		C36.5,90.8,34.2,89,31.4,89z"/>
</g>
<path fill="#FFFFFF" d="M128.5,87.2h-6.6V66c0-1.8-1.8-3.3-4.1-3.3H79.1V64h38.7c1.4,0,2.5,0.9,2.5,2v27.9c0,3.7,3.7,6.7,8.2,6.7
	c4.5,0,8.2-3,8.2-6.7S133,87.2,128.5,87.2z"/>
<g>
	<path d="M130.8,94.1c-0.2-0.1-0.4,0-0.5,0.2c-0.3,0.6-1,1.1-1.8,1.1c-0.2,0-0.4,0.1-0.4,0.3c0,0.2,0.2,0.3,0.4,0.3
		c1.2,0,2.2-0.6,2.5-1.5C131.1,94.4,131,94.2,130.8,94.1z M128.5,89.9c-2.7,0-4.9,1.8-4.9,4c0,2.2,2.2,4,4.9,4c2.7,0,4.9-1.8,4.9-4
		C133.4,91.7,131.2,89.9,128.5,89.9z M128.5,97.1c-2.2,0-4-1.4-4-3.2c0-1.8,1.8-3.2,4-3.2c2.2,0,4,1.4,4,3.2
		C132.5,95.7,130.7,97.1,128.5,97.1z M127.1,92.8c-0.3,0-0.6,0.2-0.6,0.5c0,0.3,0.3,0.5,0.6,0.5c0.3,0,0.6-0.2,0.6-0.5
		C127.7,93,127.5,92.8,127.1,92.8z M128.8,93.5c0.1,0,0.2,0,0.3-0.1c0.1-0.2,0.3-0.3,0.6-0.3c0.2,0,0.5,0.1,0.6,0.3
		c0,0,0.1,0.1,0.2,0.1c0,0,0.1,0,0.1,0c0.1,0,0.1-0.1,0.1-0.2c-0.2-0.3-0.5-0.4-0.9-0.4s-0.7,0.2-0.9,0.4
		C128.6,93.3,128.7,93.4,128.8,93.5z"/>
</g>
<g>
	<path fill="#FFFFFF" d="M62.2,38.4l-39.5,0c-4.1,0-7.4,2.7-7.4,6c0,3.3,3.3,6,7.4,6c4.1,0,7.4-2.7,7.4-6v-4.7h32.1
		c1.4,0,2.5,0.9,2.5,2V59h1.6V41.7C66.3,39.8,64.5,38.4,62.2,38.4z"/>
	<g>
		<path d="M20.4,42.1c0-0.1,0.1-0.2,0.2-0.1l5.7,2.3c0.1,0.1,0.1,0.1,0,0.2l-5.7,2.3c-0.1,0.1-0.2,0-0.2-0.1L20.4,42.1L20.4,42.1z"
			/>
	</g>
</g>
<g>
	<path fill="#FFFFFF" d="M17.3,56.3c-2.3,0-4.1,1.5-4.1,3.3v7.2H7.4c-4.1,0-7.4,2.7-7.4,6c0,3.3,3.3,6,7.4,6c4.1,0,7.4-2.7,7.4-6
		V59.6c0-1.1,1.1-2,2.5-2h43.8v-1.3L17.3,56.3L17.3,56.3z"/>
	<g>
		<path d="M10.9,69.8H5.5c-0.3,0-0.6,0.2-0.6,0.5v1h2.5c0.7,0,1.3,0.5,1.3,1v1.3h1l1.6,1.3c0.1,0,0.2,0,0.2,0c0,0,0-0.1,0-0.1v-4.5
			C11.5,70,11.2,69.8,10.9,69.8z M7.4,71.8H3.9c-0.3,0-0.6,0.2-0.6,0.5v3.3c0,0.1,0.1,0.1,0.2,0.1c0,0,0.1,0,0.1,0c0,0,0,0,0,0l0,0
			l1.3-0.9h2.5c0.3,0,0.6-0.2,0.6-0.5v-2C8,72.1,7.7,71.8,7.4,71.8z"/>
	</g>
</g>
<g>
	<path d="M107.1,43.7H46.9c-1.5,0-2.7,1-2.7,2.2v33.5h65.7V45.9C109.9,44.7,108.6,43.7,107.1,43.7z"/>
	<rect x="48.2" y="47" fill="#FFFFFF" width="57.5" height="27.7"/>
	<linearGradient id="SVGID_4_" gradientUnits="userSpaceOnUse" x1="37.2819" y1="79.1945" x2="116.7281" y2="79.1945">
		<stop  offset="0" style="stop-color:#FFFFFF"/>
		<stop  offset="1" style="stop-color:#000000"/>
	</linearGradient>
	<path fill="url(#SVGID_4_)" d="M85.9,77c-0.4,0-0.7,0.2-0.7,0.6c0,0.3-0.3,0.6-0.7,0.6H69.5c-0.4,0-0.7-0.2-0.7-0.6
		c0-0.3-0.3-0.6-0.7-0.6h-30c-0.5,0-0.8,0.3-0.8,0.7v3.1c0,0.4,0.4,0.7,0.8,0.7h77.8c0.5,0,0.8-0.3,0.8-0.7v-3.1
		c0-0.4-0.4-0.7-0.8-0.7H85.9z"/>
</g>
<g>
	<path d="M144.4,82.1h-4.5c-0.9,0-1.6-0.6-1.6-1.3c0-0.3,0.2-0.7,0.5-0.9c0.2-0.2,0.5-0.3,0.8-0.4c0,0,0,0,0,0
		c0-1.1,1.1-2.1,2.6-2.1s2.6,0.9,2.6,2.1c0,0,0,0,0,0c0.7,0.1,1.3,0.6,1.3,1.3C146,81.5,145.3,82.1,144.4,82.1z"/>
</g>
<path d="M85.9,2.7c-2.7,0-4.9,1.8-4.9,4c0,2.2,2.2,4,4.9,4s4.9-1.8,4.9-4C90.8,4.4,88.6,2.7,85.9,2.7z M87.2,4.8
	c0.6,0,1.1,0.4,1.1,0.9c0,0.1-0.1,0.2-0.2,0.2c-0.1,0-0.2-0.1-0.2-0.2c0-0.3-0.3-0.6-0.8-0.6c-0.4,0-0.8,0.3-0.8,0.6
	c0,0.1-0.1,0.2-0.2,0.2s-0.2-0.1-0.2-0.2C86.1,5.2,86.6,4.8,87.2,4.8z M84.6,4.8c0.6,0,1.1,0.4,1.1,0.9c0,0.1-0.1,0.2-0.2,0.2
	c-0.1,0-0.2-0.1-0.2-0.2c0-0.3-0.3-0.6-0.8-0.6c-0.4,0-0.8,0.3-0.8,0.6c0,0.1-0.1,0.2-0.2,0.2s-0.2-0.1-0.2-0.2
	C83.4,5.2,83.9,4.8,84.6,4.8z M85.9,9.1c-1.5,0-2.8-0.9-3-2.1c0-0.2,0.1-0.3,0.3-0.3c0.2,0,0.4,0.1,0.4,0.3c0.2,0.9,1.1,1.6,2.2,1.6
	s2.1-0.7,2.2-1.6c0-0.2,0.2-0.3,0.4-0.3c0.2,0,0.4,0.2,0.3,0.3C88.7,8.2,87.4,9.1,85.9,9.1z"/>
<path d="M84.4,59.4c-0.9-0.2-1.7-0.5-2.5-0.8c-0.5-0.2-0.6-0.5-0.3-0.9c0.3-0.5,0.5-0.8,0.8-1.4c2.2-3.5-1.3-5-2.1-3.3
	c-0.1,0.3-0.2,0.8-0.3,1.1c-0.9,2.6-3.3,5.3-6.7,6.4l0.5,6.3c1.6,0,3.1,0.2,3.8,0.3c0.9,0.2,1.8,0.3,2.7,0.3
	c0.8,0.1,1.6,0.1,2.4,0.1c0.7,0,1.3-0.3,1.5-1c0.1-0.2,0.2-0.4,0.4-0.4c0.6-0.3,0.7-0.7,0.8-1.2c0.1-0.3,0.3-0.6,0.4-1
	c0.1-0.4,0.3-0.8,0.3-1.2c0.1-0.3-0.1-0.7,0-1C86.5,60.5,86,59.8,84.4,59.4z M71.4,60.2l-1.7,0.1c-0.4,0-0.6,0.3-0.6,0.6l0.5,6.5
	c0,0.3,0.3,0.5,0.7,0.5l1.7-0.1c0.4,0,0.6-0.3,0.6-0.6l-0.5-6.5C72.1,60.4,71.8,60.1,71.4,60.2z"/>
</svg>
