<?xml version="1.0" encoding="utf-8"?>
<!-- Generator: Adobe Illustrator 18.0.0, SVG Export Plug-In . SVG Version: 6.00 Build 0)  -->
<!DOCTYPE svg PUBLIC "-//W3C//DTD SVG 1.1//EN" "http://www.w3.org/Graphics/SVG/1.1/DTD/svg11.dtd">
<svg version="1.1" id="Layer_1" xmlns="http://www.w3.org/2000/svg" xmlns:xlink="http://www.w3.org/1999/xlink" x="0px" y="0px"
	 viewBox="0 0 107.4 151.6" enable-background="new 0 0 107.4 151.6" xml:space="preserve">
<g>
	<path fill="#FFFFFF" d="M12.9,120.5c-0.3,0.3-0.6,0.7-1,0.9s-0.8,0.5-1.3,0.8s-1,0.4-1.6,0.5s-1.2,0.2-1.8,0.2
		c-1,0-1.9-0.2-2.7-0.6s-1.5-0.9-2-1.6s-1-1.5-1.2-2.4s-0.4-1.9-0.4-3V113c0-1.1,0.1-2.1,0.4-3s0.7-1.8,1.2-2.4s1.2-1.2,1.9-1.6
		s1.6-0.6,2.6-0.6c0.9,0,1.7,0.1,2.4,0.4s1.3,0.6,1.8,1s0.9,1,1.2,1.7s0.5,1.4,0.6,2.2h-2.8c-0.1-0.5-0.2-0.9-0.3-1.2
		s-0.3-0.7-0.6-0.9s-0.6-0.5-0.9-0.6s-0.8-0.2-1.3-0.2c-0.6,0-1.1,0.1-1.5,0.4s-0.8,0.7-1.1,1.2s-0.5,1.1-0.6,1.7s-0.2,1.3-0.2,2
		v2.1c0,0.7,0.1,1.4,0.2,2s0.4,1.2,0.6,1.7s0.7,0.9,1.1,1.2s1,0.4,1.7,0.5c0.3,0,0.5,0,0.8-0.1s0.5-0.1,0.8-0.2s0.5-0.2,0.7-0.3
		s0.4-0.3,0.5-0.5l0-3.4H7V114h5.8L12.9,120.5z"/>
	<path fill="#FFFFFF" d="M21.5,115.9h-2.9v6.7h-2.8v-17.1h5.4c0.9,0,1.7,0.1,2.4,0.3s1.4,0.5,1.9,1s1,1,1.3,1.6s0.4,1.4,0.4,2.3
		c0,0.6-0.1,1.1-0.2,1.6s-0.4,0.9-0.6,1.3s-0.6,0.7-1,1s-0.8,0.5-1.3,0.7l3.6,7.2v0.1h-3L21.5,115.9z M18.7,113.7h2.6
		c0.5,0,0.9-0.1,1.3-0.2s0.7-0.3,1-0.6s0.5-0.5,0.7-0.9s0.2-0.8,0.2-1.2c0-0.5-0.1-0.9-0.2-1.3s-0.4-0.7-0.6-0.9s-0.6-0.4-1-0.6
		s-0.8-0.2-1.3-0.2h-2.6V113.7z"/>
	<path fill="#FFFFFF" d="M38.5,118.6h-5.3l-1.2,4h-2.9l5.5-17.1h2.5l5.4,17.1h-2.9L38.5,118.6z M33.9,116.2h3.9l-1.9-6.7L33.9,116.2
		z"/>
	<path fill="#FFFFFF" d="M47.7,116.1v6.5h-2.8v-17.1h5.7c0.9,0,1.6,0.1,2.4,0.4s1.3,0.6,1.9,1.1s0.9,1,1.2,1.7s0.4,1.4,0.4,2.2
		c0,0.8-0.1,1.5-0.4,2.2s-0.7,1.2-1.2,1.6s-1.1,0.8-1.9,1s-1.5,0.4-2.4,0.4H47.7z M47.7,113.8h2.9c0.5,0,0.9-0.1,1.3-0.2
		s0.7-0.3,1-0.6s0.5-0.6,0.6-0.9s0.2-0.8,0.2-1.2c0-0.4-0.1-0.9-0.2-1.2s-0.3-0.7-0.6-1s-0.6-0.5-1-0.6s-0.8-0.2-1.3-0.2h-2.9V113.8
		z"/>
	<path fill="#FFFFFF" d="M70.1,122.6h-2.7V115h-5.8v7.6h-2.7v-17.1h2.7v7.1h5.8v-7.1h2.7V122.6z"/>
	<path fill="#FFFFFF" d="M73.8,105.5H84v2.3h-3.7v12.4H84v2.3H73.8v-2.3h3.6v-12.4h-3.6V105.5z"/>
	<path fill="#FFFFFF" d="M99.4,117.4c-0.1,0.8-0.3,1.6-0.6,2.2s-0.7,1.3-1.2,1.7s-1.1,0.9-1.8,1.1s-1.5,0.4-2.3,0.4
		c-1,0-1.9-0.2-2.7-0.6s-1.4-0.9-1.9-1.6s-0.9-1.5-1.2-2.4s-0.4-1.9-0.4-3v-2.3c0-1,0.1-2,0.4-2.9s0.7-1.7,1.2-2.4s1.2-1.2,1.9-1.6
		s1.7-0.6,2.7-0.6c0.9,0,1.7,0.1,2.4,0.4s1.3,0.6,1.8,1.1s0.9,1.1,1.2,1.8s0.5,1.5,0.6,2.3h-2.8c0-0.5-0.1-1-0.3-1.4
		s-0.3-0.8-0.6-1.1s-0.6-0.5-0.9-0.7s-0.8-0.2-1.3-0.2c-0.6,0-1.2,0.1-1.6,0.4s-0.8,0.7-1,1.2s-0.5,1.1-0.6,1.7s-0.2,1.3-0.2,2v2.4
		c0,0.7,0.1,1.4,0.2,2.1s0.3,1.2,0.6,1.7s0.6,0.9,1,1.1s1,0.4,1.6,0.4c1,0,1.7-0.3,2.3-0.8s0.8-1.3,0.9-2.4H99.4z"/>
	<path fill="#FFFFFF" d="M1.3,151.4v-17.1h4.2c1.2,0,2.2,0.2,3.2,0.6s1.7,0.9,2.4,1.6s1.2,1.5,1.5,2.5s0.5,2,0.5,3.2v1.3
		c0,1.2-0.2,2.2-0.5,3.2s-0.9,1.8-1.5,2.5s-1.4,1.2-2.4,1.6s-2,0.6-3.1,0.6H1.3z M4.1,136.6v12.5h1.4c0.8,0,1.4-0.1,2-0.4
		s1.1-0.6,1.4-1.1s0.7-1.1,0.9-1.8s0.3-1.5,0.3-2.3v-1.3c0-0.8-0.1-1.6-0.3-2.3s-0.5-1.3-0.9-1.8s-0.9-0.9-1.5-1.2s-1.3-0.4-2.1-0.4
		H4.1z"/>
	<path fill="#FFFFFF" d="M25.8,143.7h-7v5.4H27v2.3H16v-17.1h11v2.3h-8.1v4.8h7V143.7z"/>
	<path fill="#FFFFFF" d="M39.1,147c0-0.4-0.1-0.8-0.3-1.1s-0.4-0.6-0.7-0.8s-0.7-0.4-1.1-0.6s-0.9-0.3-1.4-0.5
		c-0.7-0.2-1.3-0.4-2-0.7s-1.2-0.6-1.7-1.1s-0.9-0.9-1.2-1.5s-0.5-1.2-0.5-1.9s0.2-1.4,0.5-2s0.7-1.1,1.3-1.5s1.1-0.7,1.9-0.9
		s1.4-0.3,2.2-0.3c0.8,0,1.6,0.1,2.3,0.4s1.3,0.6,1.9,1.1s1,1,1.3,1.6s0.5,1.3,0.5,2.1h-2.8c0-0.4-0.1-0.8-0.3-1.2s-0.3-0.7-0.6-0.9
		s-0.6-0.5-1-0.6s-0.8-0.2-1.3-0.2c-0.4,0-0.8,0.1-1.2,0.2s-0.7,0.3-0.9,0.5s-0.5,0.5-0.6,0.8s-0.2,0.6-0.2,1c0,0.4,0.1,0.7,0.3,1
		s0.5,0.5,0.8,0.8s0.7,0.4,1.1,0.6s0.9,0.3,1.3,0.4c0.7,0.2,1.4,0.5,2,0.8s1.2,0.7,1.7,1.1s0.9,0.9,1.2,1.5s0.4,1.2,0.4,2
		c0,0.8-0.2,1.4-0.5,2s-0.8,1.1-1.3,1.5s-1.2,0.7-1.9,0.9s-1.5,0.3-2.2,0.3c-0.5,0-1-0.1-1.6-0.2s-1-0.3-1.5-0.5s-0.9-0.5-1.3-0.8
		s-0.8-0.6-1.1-1s-0.5-0.8-0.7-1.3s-0.3-1-0.3-1.6h2.8c0,0.5,0.2,1,0.3,1.3s0.4,0.7,0.8,1s0.7,0.4,1.1,0.6s0.9,0.2,1.4,0.2
		c0.4,0,0.8-0.1,1.2-0.2s0.7-0.3,1-0.5s0.5-0.4,0.6-0.7S39.1,147.4,39.1,147z"/>
	<path fill="#FFFFFF" d="M45,134.3h10.1v2.3h-3.7v12.4h3.7v2.3H45v-2.3h3.6v-12.4H45V134.3z"/>
	<path fill="#FFFFFF" d="M70.5,149.3c-0.3,0.3-0.6,0.7-1,0.9s-0.8,0.5-1.3,0.8s-1,0.4-1.6,0.5s-1.2,0.2-1.8,0.2
		c-1,0-1.9-0.2-2.7-0.6s-1.5-0.9-2-1.6s-1-1.5-1.2-2.4s-0.4-1.9-0.4-3v-2.1c0-1.1,0.1-2.1,0.4-3s0.7-1.8,1.2-2.4s1.2-1.2,1.9-1.6
		s1.6-0.6,2.6-0.6c0.9,0,1.7,0.1,2.4,0.4s1.3,0.6,1.8,1s0.9,1,1.2,1.7s0.5,1.4,0.6,2.2h-2.8c-0.1-0.5-0.2-0.9-0.3-1.2
		s-0.3-0.7-0.6-0.9s-0.6-0.5-0.9-0.6s-0.8-0.2-1.3-0.2c-0.6,0-1.1,0.1-1.5,0.4s-0.8,0.7-1.1,1.2s-0.5,1.1-0.6,1.7s-0.2,1.3-0.2,2
		v2.1c0,0.7,0.1,1.4,0.2,2s0.4,1.2,0.6,1.7s0.7,0.9,1.1,1.2s1,0.4,1.7,0.5c0.3,0,0.5,0,0.8-0.1s0.5-0.1,0.8-0.2s0.5-0.2,0.7-0.3
		s0.4-0.3,0.5-0.5l0-3.4h-3.1v-2.2h5.8L70.5,149.3z"/>
	<path fill="#FFFFFF" d="M84.5,151.4h-2.8l-5.6-11.7l0,11.7h-2.8v-17.1h2.8l5.5,11.7l0-11.7h2.8V151.4z"/>
</g>
<g>
	<polygon fill="#FFFFFF" stroke="#000000" stroke-width="5" stroke-miterlimit="10" points="59.2,8.2 103.8,44.7 66.4,88.3 
		21.8,51.7 	"/>
	<polygon points="19,51.6 66.9,90.9 58.7,100.5 10.8,61.2 	"/>
</g>
<g>
	<g>
		<rect x="2.5" y="2.5" fill="#FFFFFF" stroke="#000000" stroke-width="5" stroke-miterlimit="10" width="58.2" height="56.8"/>
		<rect x="0.1" y="60.9" width="62.6" height="11.9"/>
	</g>
</g>
<linearGradient id="SVGID_1_" gradientUnits="userSpaceOnUse" x1="33.1924" y1="43.2991" x2="58.385" y2="43.2991">
	<stop  offset="0" style="stop-color:#FFFFFF"/>
	<stop  offset="1" style="stop-color:#000000"/>
</linearGradient>
<polygon fill="url(#SVGID_1_)" points="33.2,56.6 49.8,29.4 58.4,41.2 58.4,57.2 51.6,57.2 "/>
<linearGradient id="SVGID_2_" gradientUnits="userSpaceOnUse" x1="17.5801" y1="44.2953" x2="52.9739" y2="44.2953">
	<stop  offset="0" style="stop-color:#FFFFFF"/>
	<stop  offset="1" style="stop-color:#000000"/>
</linearGradient>
<polygon fill="url(#SVGID_2_)" points="17.6,57.2 37.4,31.3 53,57.2 "/>
<ellipse cx="20.5" cy="17.7" rx="4.7" ry="4.6"/>
</svg>
