<?xml version="1.0" encoding="utf-8"?>
<!-- Generator: Adobe Illustrator 18.0.0, SVG Export Plug-In . SVG Version: 6.00 Build 0)  -->
<!DOCTYPE svg PUBLIC "-//W3C//DTD SVG 1.1//EN" "http://www.w3.org/Graphics/SVG/1.1/DTD/svg11.dtd">
<svg version="1.1" id="Layer_1" xmlns="http://www.w3.org/2000/svg" xmlns:xlink="http://www.w3.org/1999/xlink" x="0px" y="0px"
	 viewBox="0 0 184.5 188.5" enable-background="new 0 0 184.5 188.5" xml:space="preserve">
<path fill="#0099FF" d="M179.8,188.5H4.7c-2.6,0-4.7-2.1-4.7-4.7V4.7C0,2.1,2.1,0,4.7,0h175c2.6,0,4.7,2.1,4.7,4.7v179
	C184.5,186.4,182.4,188.5,179.8,188.5z"/>
<g>
	<path fill="#FFFFFF" d="M57.2,140.9c-0.3,0.3-0.6,0.7-1,0.9s-0.8,0.5-1.3,0.8s-1,0.4-1.6,0.5s-1.2,0.2-1.8,0.2
		c-1,0-1.9-0.2-2.7-0.6s-1.5-0.9-2-1.6s-1-1.5-1.2-2.4s-0.4-1.9-0.4-3v-2.1c0-1.1,0.1-2.1,0.4-3s0.7-1.8,1.2-2.4s1.2-1.2,1.9-1.6
		s1.6-0.6,2.6-0.6c0.9,0,1.7,0.1,2.4,0.4s1.3,0.6,1.8,1s0.9,1,1.2,1.7s0.5,1.4,0.6,2.2h-2.8c-0.1-0.5-0.2-0.9-0.3-1.2
		s-0.3-0.7-0.6-0.9s-0.6-0.5-0.9-0.6s-0.8-0.2-1.3-0.2c-0.6,0-1.1,0.1-1.5,0.4s-0.8,0.7-1.1,1.2s-0.5,1.1-0.6,1.7s-0.2,1.3-0.2,2
		v2.1c0,0.7,0.1,1.4,0.2,2s0.4,1.2,0.6,1.7s0.7,0.9,1.1,1.2s1,0.4,1.7,0.5c0.3,0,0.5,0,0.8-0.1s0.5-0.1,0.8-0.2s0.5-0.2,0.7-0.3
		s0.4-0.3,0.5-0.5l0-3.4h-3.1v-2.2h5.8L57.2,140.9z"/>
	<path fill="#FFFFFF" d="M65.9,136.3H63v6.7h-2.8v-17.1h5.4c0.9,0,1.7,0.1,2.4,0.3s1.4,0.5,1.9,1s1,1,1.3,1.6s0.4,1.4,0.4,2.3
		c0,0.6-0.1,1.1-0.2,1.6s-0.4,0.9-0.6,1.3s-0.6,0.7-1,1s-0.8,0.5-1.3,0.7l3.6,7.2v0.1h-3L65.9,136.3z M63,134.1h2.6
		c0.5,0,0.9-0.1,1.3-0.2s0.7-0.3,1-0.6s0.5-0.5,0.7-0.9s0.2-0.8,0.2-1.2c0-0.5-0.1-0.9-0.2-1.3s-0.4-0.7-0.6-0.9s-0.6-0.4-1-0.6
		s-0.8-0.2-1.3-0.2H63V134.1z"/>
	<path fill="#FFFFFF" d="M82.8,139h-5.3l-1.2,4h-2.9l5.5-17.1h2.5l5.4,17.1H84L82.8,139z M78.2,136.6h3.9l-1.9-6.7L78.2,136.6z"/>
	<path fill="#FFFFFF" d="M92,136.5v6.5h-2.8v-17.1h5.7c0.9,0,1.6,0.1,2.4,0.4s1.3,0.6,1.9,1.1s0.9,1,1.2,1.7s0.4,1.4,0.4,2.2
		c0,0.8-0.1,1.5-0.4,2.2s-0.7,1.2-1.2,1.6s-1.1,0.8-1.9,1s-1.5,0.4-2.4,0.4H92z M92,134.2h2.9c0.5,0,0.9-0.1,1.3-0.2s0.7-0.3,1-0.6
		s0.5-0.6,0.6-0.9s0.2-0.8,0.2-1.2c0-0.4-0.1-0.9-0.2-1.2s-0.3-0.7-0.6-1s-0.6-0.5-1-0.6s-0.8-0.2-1.3-0.2H92V134.2z"/>
	<path fill="#FFFFFF" d="M114.4,143h-2.7v-7.6h-5.8v7.6h-2.7v-17.1h2.7v7.1h5.8v-7.1h2.7V143z"/>
	<path fill="#FFFFFF" d="M118.2,125.9h10.1v2.3h-3.7v12.4h3.7v2.3h-10.1v-2.3h3.6v-12.4h-3.6V125.9z"/>
	<path fill="#FFFFFF" d="M143.7,137.8c-0.1,0.8-0.3,1.6-0.6,2.2s-0.7,1.3-1.2,1.7s-1.1,0.9-1.8,1.1s-1.5,0.4-2.3,0.4
		c-1,0-1.9-0.2-2.7-0.6s-1.4-0.9-1.9-1.6s-0.9-1.5-1.2-2.4s-0.4-1.9-0.4-3v-2.3c0-1,0.1-2,0.4-2.9s0.7-1.7,1.2-2.4s1.2-1.2,1.9-1.6
		s1.7-0.6,2.7-0.6c0.9,0,1.7,0.1,2.4,0.4s1.3,0.6,1.8,1.1s0.9,1.1,1.2,1.8s0.5,1.5,0.6,2.3h-2.8c0-0.5-0.1-1-0.3-1.4
		s-0.3-0.8-0.6-1.1s-0.6-0.5-0.9-0.7s-0.8-0.2-1.3-0.2c-0.6,0-1.2,0.1-1.6,0.4s-0.8,0.7-1,1.2s-0.5,1.1-0.6,1.7s-0.2,1.3-0.2,2v2.4
		c0,0.7,0.1,1.4,0.2,2.1s0.3,1.2,0.6,1.7s0.6,0.9,1,1.1s1,0.4,1.6,0.4c1,0,1.7-0.3,2.3-0.8s0.8-1.3,0.9-2.4H143.7z"/>
	<path fill="#FFFFFF" d="M45.6,171.8v-17.1h4.2c1.2,0,2.2,0.2,3.2,0.6s1.7,0.9,2.4,1.6s1.2,1.5,1.5,2.5s0.5,2,0.5,3.2v1.3
		c0,1.2-0.2,2.2-0.5,3.2s-0.9,1.8-1.5,2.5s-1.4,1.2-2.4,1.6s-2,0.6-3.1,0.6H45.6z M48.5,157v12.5h1.4c0.8,0,1.4-0.1,2-0.4
		s1.1-0.6,1.4-1.1s0.7-1.1,0.9-1.8s0.3-1.5,0.3-2.3v-1.3c0-0.8-0.1-1.6-0.3-2.3s-0.5-1.3-0.9-1.8s-0.9-0.9-1.5-1.2s-1.3-0.4-2.1-0.4
		H48.5z"/>
	<path fill="#FFFFFF" d="M70.2,164.1h-7v5.4h8.2v2.3h-11v-17.1h11v2.3h-8.1v4.8h7V164.1z"/>
	<path fill="#FFFFFF" d="M83.4,167.4c0-0.4-0.1-0.8-0.3-1.1s-0.4-0.6-0.7-0.8s-0.7-0.4-1.1-0.6s-0.9-0.3-1.4-0.5
		c-0.7-0.2-1.3-0.4-2-0.7s-1.2-0.6-1.7-1.1s-0.9-0.9-1.2-1.5s-0.5-1.2-0.5-1.9s0.2-1.4,0.5-2s0.7-1.1,1.3-1.5s1.1-0.7,1.9-0.9
		s1.4-0.3,2.2-0.3c0.8,0,1.6,0.1,2.3,0.4s1.3,0.6,1.9,1.1s1,1,1.3,1.6s0.5,1.3,0.5,2.1h-2.8c0-0.4-0.1-0.8-0.3-1.2s-0.3-0.7-0.6-0.9
		s-0.6-0.5-1-0.6s-0.8-0.2-1.3-0.2c-0.4,0-0.8,0.1-1.2,0.2s-0.7,0.3-0.9,0.5s-0.5,0.5-0.6,0.8s-0.2,0.6-0.2,1c0,0.4,0.1,0.7,0.3,1
		s0.5,0.5,0.8,0.8s0.7,0.4,1.1,0.6s0.9,0.3,1.3,0.4c0.7,0.2,1.4,0.5,2,0.8s1.2,0.7,1.7,1.1s0.9,0.9,1.2,1.5s0.4,1.2,0.4,2
		c0,0.8-0.2,1.4-0.5,2s-0.8,1.1-1.3,1.5s-1.2,0.7-1.9,0.9s-1.5,0.3-2.2,0.3c-0.5,0-1-0.1-1.6-0.2s-1-0.3-1.5-0.5s-0.9-0.5-1.3-0.8
		s-0.8-0.6-1.1-1s-0.5-0.8-0.7-1.3s-0.3-1-0.3-1.6h2.8c0,0.5,0.2,1,0.3,1.3s0.4,0.7,0.8,1s0.7,0.4,1.1,0.6s0.9,0.2,1.4,0.2
		c0.4,0,0.8-0.1,1.2-0.2s0.7-0.3,1-0.5s0.5-0.4,0.6-0.7S83.4,167.8,83.4,167.4z"/>
	<path fill="#FFFFFF" d="M89.4,154.7h10.1v2.3h-3.7v12.4h3.7v2.3H89.4v-2.3H93v-12.4h-3.6V154.7z"/>
	<path fill="#FFFFFF" d="M114.8,169.7c-0.3,0.3-0.6,0.7-1,0.9s-0.8,0.5-1.3,0.8s-1,0.4-1.6,0.5s-1.2,0.2-1.8,0.2
		c-1,0-1.9-0.2-2.7-0.6s-1.5-0.9-2-1.6s-1-1.5-1.2-2.4s-0.4-1.9-0.4-3v-2.1c0-1.1,0.1-2.1,0.4-3s0.7-1.8,1.2-2.4s1.2-1.2,1.9-1.6
		s1.6-0.6,2.6-0.6c0.9,0,1.7,0.1,2.4,0.4s1.3,0.6,1.8,1s0.9,1,1.2,1.7s0.5,1.4,0.6,2.2h-2.8c-0.1-0.5-0.2-0.9-0.3-1.2
		s-0.3-0.7-0.6-0.9s-0.6-0.5-0.9-0.6s-0.8-0.2-1.3-0.2c-0.6,0-1.1,0.1-1.5,0.4s-0.8,0.7-1.1,1.2s-0.5,1.1-0.6,1.7s-0.2,1.3-0.2,2
		v2.1c0,0.7,0.1,1.4,0.2,2s0.4,1.2,0.6,1.7s0.7,0.9,1.1,1.2s1,0.4,1.7,0.5c0.3,0,0.5,0,0.8-0.1s0.5-0.1,0.8-0.2s0.5-0.2,0.7-0.3
		s0.4-0.3,0.5-0.5l0-3.4H109v-2.2h5.8L114.8,169.7z"/>
	<path fill="#FFFFFF" d="M128.8,171.8H126l-5.6-11.7l0,11.7h-2.8v-17.1h2.8l5.5,11.7l0-11.7h2.8V171.8z"/>
</g>
<g>
	<polygon fill="#FFFFFF" stroke="#000000" stroke-width="5" stroke-miterlimit="10" points="103.6,28.6 148.2,65.1 110.8,108.7 
		66.2,72.1 	"/>
	<polygon points="63.3,72 111.3,111.3 103.1,120.9 55.1,81.6 	"/>
</g>
<g>
	<g>
		<rect x="46.8" y="22.9" fill="#FFFFFF" stroke="#000000" stroke-width="5" stroke-miterlimit="10" width="58.2" height="56.8"/>
		<rect x="44.5" y="81.3" width="62.6" height="11.9"/>
	</g>
</g>
<linearGradient id="SVGID_1_" gradientUnits="userSpaceOnUse" x1="77.5381" y1="63.7057" x2="102.7308" y2="63.7057">
	<stop  offset="0" style="stop-color:#FFFFFF"/>
	<stop  offset="1" style="stop-color:#000000"/>
</linearGradient>
<polygon fill="url(#SVGID_1_)" points="77.5,77 94.1,49.8 102.7,61.6 102.7,77.6 96,77.6 "/>
<linearGradient id="SVGID_2_" gradientUnits="userSpaceOnUse" x1="61.9258" y1="64.7019" x2="97.3196" y2="64.7019">
	<stop  offset="0" style="stop-color:#FFFFFF"/>
	<stop  offset="1" style="stop-color:#000000"/>
</linearGradient>
<polygon fill="url(#SVGID_2_)" points="61.9,77.7 81.7,51.8 97.3,77.7 "/>
<ellipse cx="64.9" cy="38.1" rx="4.7" ry="4.6"/>
</svg>
