<?xml version="1.0" encoding="utf-8"?>
<!-- Generator: Adobe Illustrator 18.0.0, SVG Export Plug-In . SVG Version: 6.00 Build 0)  -->
<!DOCTYPE svg PUBLIC "-//W3C//DTD SVG 1.1//EN" "http://www.w3.org/Graphics/SVG/1.1/DTD/svg11.dtd">
<svg version="1.1" id="Layer_1" xmlns="http://www.w3.org/2000/svg" xmlns:xlink="http://www.w3.org/1999/xlink" x="0px" y="0px"
	 viewBox="0 0 150.8 134.9" enable-background="new 0 0 150.8 134.9" xml:space="preserve">
<g>
	<path fill="#F7F8F9" d="M6.5,43h18.4c0,0,0.9-1.2,2.9,2.4v43.2c0,0-1.1,4-2,3.3L7.4,92c0,0-2.9-1.6-2.6-3.4l0-43.2
		C4.8,45.4,5,45,6.5,43z"/>
	<linearGradient id="SVGID_1_" gradientUnits="userSpaceOnUse" x1="29.7794" y1="75.3636" x2="0.807" y2="58.6364">
		<stop  offset="0" style="stop-color:#FFFFFF"/>
		<stop  offset="1" style="stop-color:#000000"/>
	</linearGradient>
	<rect x="5.8" y="50" fill="url(#SVGID_1_)" width="19" height="34"/>
	<rect x="12" y="46.1" fill="#000102" width="7.2" height="1.8"/>
	<ellipse fill="#000102" cx="16.3" cy="87.4" rx="1.6" ry="1.7"/>
	<path fill="#F7F8F9" d="M11.8,39V5.5c0,0,1.7-3.5,5-5.5h91.8c0,0,2.1,0.2,2.1,3.2v13.9l-4.9,0.2L106,8H17.8v31H11.8z"/>
	<rect x="31.8" y="60" fill="#F7F8F9" width="58" height="15"/>
	<polygon fill="#F7F8F9" points="52,78 50.7,83.1 46.8,88 76.7,88 72.7,83 72,78 	"/>
	<path fill="#F7F8F9" d="M99.4,23.3c0,0-2.6,0.9-3.6,3.1v62.2l4.3,2.4h38.8l1.9-3.4v-61l-2.9-3.5L99.4,23.3z"/>
	<linearGradient id="SVGID_2_" gradientUnits="userSpaceOnUse" x1="144.2681" y1="72.7853" x2="91.3184" y2="42.2147">
		<stop  offset="0" style="stop-color:#FFFFFF"/>
		<stop  offset="1" style="stop-color:#000000"/>
	</linearGradient>
	<rect x="97.8" y="31" fill="url(#SVGID_2_)" width="40" height="53"/>
	<ellipse fill="#020002" cx="61.8" cy="67.6" rx="2.2" ry="2.6"/>
	<ellipse fill="#000102" cx="124.5" cy="87.4" rx="1.6" ry="1.7"/>
	<ellipse fill="#000102" cx="119.3" cy="87.4" rx="1.6" ry="1.7"/>
	<ellipse cx="114" cy="87.4" rx="1.6" ry="1.7"/>
</g>
<g>
	<path fill="#FFFFFF" d="M10.2,128.8l1.3-11.2h2.8L12,134.7H9.1l-2-11.3l-2,11.3H2.3L0,117.6h2.8l1.3,11.1l1.9-11.1h2.3L10.2,128.8z
		"/>
	<path fill="#FFFFFF" d="M27.2,127.1h-7.5v5.4h8.7v2.3H16.7v-17.1h11.7v2.3h-8.6v4.8h7.5V127.1z"/>
	<path fill="#FFFFFF" d="M31.9,134.7v-17.1h5.8c0.9,0,1.7,0.1,2.4,0.3s1.4,0.5,2,0.8c0.6,0.4,1,0.9,1.3,1.4c0.3,0.6,0.5,1.3,0.5,2.1
		c0,0.8-0.3,1.6-0.7,2.2c-0.5,0.6-1.2,1.1-2,1.4c0.5,0.1,1,0.3,1.4,0.6c0.4,0.2,0.7,0.5,1,0.9s0.5,0.7,0.6,1.1s0.2,0.9,0.2,1.3
		c0,0.8-0.2,1.5-0.5,2.1s-0.8,1.1-1.3,1.5c-0.6,0.4-1.2,0.7-2,0.9s-1.6,0.3-2.5,0.3H31.9z M34.9,124.8h2.9c0.4,0,0.9-0.1,1.3-0.2
		c0.4-0.1,0.7-0.3,1-0.5s0.5-0.5,0.7-0.8s0.2-0.6,0.2-1c0-0.4-0.1-0.8-0.2-1.1s-0.4-0.6-0.7-0.8c-0.3-0.2-0.6-0.3-1-0.4
		c-0.4-0.1-0.8-0.1-1.3-0.1h-2.8V124.8z M34.9,127v5.4h3.3c0.5,0,0.9-0.1,1.3-0.2c0.4-0.1,0.7-0.3,1-0.5s0.5-0.5,0.7-0.8
		s0.2-0.7,0.2-1.1c0-0.4-0.1-0.8-0.2-1.2c-0.1-0.3-0.3-0.6-0.6-0.9c-0.3-0.2-0.6-0.4-1-0.5c-0.4-0.1-0.8-0.2-1.3-0.2H34.9z"/>
	<path fill="#FFFFFF" d="M62.4,134.7v-17.1h4.4c1.2,0,2.4,0.2,3.4,0.6s1.8,0.9,2.5,1.6s1.2,1.5,1.6,2.5c0.4,1,0.6,2,0.6,3.2v1.3
		c0,1.2-0.2,2.2-0.6,3.2c-0.4,1-0.9,1.8-1.6,2.5s-1.5,1.2-2.5,1.6c-1,0.4-2.1,0.6-3.3,0.6H62.4z M65.4,119.9v12.5h1.5
		c0.8,0,1.5-0.1,2.2-0.4s1.1-0.6,1.5-1.1c0.4-0.5,0.7-1.1,0.9-1.8c0.2-0.7,0.3-1.5,0.3-2.3v-1.3c0-0.8-0.1-1.6-0.3-2.3
		c-0.2-0.7-0.5-1.3-0.9-1.8c-0.4-0.5-0.9-0.9-1.6-1.2c-0.6-0.3-1.4-0.4-2.2-0.4H65.4z"/>
	<path fill="#FFFFFF" d="M88.5,127.1H81v5.4h8.7v2.3H78v-17.1h11.7v2.3H81v4.8h7.5V127.1z"/>
	<path fill="#FFFFFF" d="M102.6,130.3c0-0.4-0.1-0.8-0.3-1.1c-0.2-0.3-0.4-0.6-0.8-0.8c-0.3-0.2-0.7-0.4-1.2-0.6s-0.9-0.3-1.5-0.5
		c-0.7-0.2-1.4-0.4-2.1-0.7s-1.3-0.6-1.9-1.1c-0.5-0.4-1-0.9-1.3-1.5s-0.5-1.2-0.5-1.9s0.2-1.4,0.5-2s0.8-1.1,1.4-1.5s1.2-0.7,2-0.9
		c0.7-0.2,1.5-0.3,2.3-0.3c0.9,0,1.7,0.1,2.4,0.4s1.4,0.6,2,1.1c0.6,0.5,1,1,1.4,1.6s0.5,1.3,0.5,2.1h-3c0-0.4-0.1-0.8-0.3-1.2
		s-0.4-0.7-0.6-0.9c-0.3-0.3-0.6-0.5-1-0.6c-0.4-0.1-0.9-0.2-1.4-0.2c-0.4,0-0.9,0.1-1.2,0.2c-0.4,0.1-0.7,0.3-1,0.5
		c-0.3,0.2-0.5,0.5-0.7,0.8c-0.2,0.3-0.2,0.6-0.2,1c0,0.4,0.1,0.7,0.3,1s0.5,0.5,0.8,0.8s0.7,0.4,1.2,0.6s0.9,0.3,1.4,0.4
		c0.8,0.2,1.5,0.5,2.2,0.8c0.7,0.3,1.3,0.7,1.8,1.1c0.5,0.4,0.9,0.9,1.2,1.5s0.5,1.2,0.5,2c0,0.8-0.2,1.4-0.5,2s-0.8,1.1-1.4,1.5
		s-1.2,0.7-2,0.9c-0.8,0.2-1.5,0.3-2.4,0.3c-0.6,0-1.1-0.1-1.7-0.2c-0.5-0.1-1.1-0.3-1.6-0.5s-1-0.5-1.4-0.8c-0.4-0.3-0.8-0.6-1.1-1
		c-0.3-0.4-0.6-0.8-0.8-1.3c-0.2-0.5-0.3-1-0.3-1.6h3c0,0.5,0.2,1,0.4,1.3c0.2,0.4,0.5,0.7,0.8,1s0.7,0.4,1.2,0.6
		c0.4,0.1,0.9,0.2,1.5,0.2c0.4,0,0.9-0.1,1.3-0.2s0.7-0.3,1-0.5c0.3-0.2,0.5-0.4,0.7-0.7C102.5,131,102.6,130.7,102.6,130.3z"/>
	<path fill="#FFFFFF" d="M108.9,117.6h10.8v2.3h-3.9v12.4h3.9v2.3h-10.8v-2.3h3.8V120h-3.8V117.6z"/>
	<path fill="#FFFFFF" d="M136,132.6c-0.3,0.3-0.7,0.7-1.1,0.9c-0.4,0.3-0.9,0.5-1.4,0.8c-0.5,0.2-1.1,0.4-1.7,0.5
		c-0.6,0.1-1.2,0.2-1.9,0.2c-1.1,0-2.1-0.2-2.9-0.6s-1.5-0.9-2.1-1.6s-1-1.5-1.3-2.4c-0.3-0.9-0.5-1.9-0.5-3v-2.1
		c0-1.1,0.1-2.1,0.4-3s0.7-1.8,1.3-2.4s1.2-1.2,2.1-1.6c0.8-0.4,1.7-0.6,2.8-0.6c0.9,0,1.8,0.1,2.5,0.4c0.7,0.2,1.4,0.6,1.9,1
		s1,1,1.3,1.7c0.3,0.7,0.5,1.4,0.6,2.2H133c-0.1-0.5-0.2-0.9-0.3-1.2c-0.2-0.4-0.4-0.7-0.6-0.9c-0.3-0.3-0.6-0.5-1-0.6
		s-0.8-0.2-1.3-0.2c-0.6,0-1.2,0.1-1.6,0.4c-0.5,0.3-0.8,0.7-1.1,1.2s-0.5,1.1-0.7,1.7c-0.1,0.7-0.2,1.3-0.2,2v2.1
		c0,0.7,0.1,1.4,0.2,2s0.4,1.2,0.7,1.7c0.3,0.5,0.7,0.9,1.2,1.2c0.5,0.3,1.1,0.4,1.8,0.5c0.3,0,0.6,0,0.9-0.1c0.3,0,0.6-0.1,0.9-0.2
		s0.5-0.2,0.7-0.3s0.4-0.3,0.5-0.5l0-3.4h-3.3v-2.2h6.2L136,132.6z"/>
	<path fill="#FFFFFF" d="M150.8,134.7h-3l-5.9-11.7l0,11.7h-3v-17.1h3l5.9,11.7l0-11.7h3V134.7z"/>
</g>
</svg>
