<?xml version="1.0" encoding="utf-8"?>
<!-- Generator: Adobe Illustrator 18.0.0, SVG Export Plug-In . SVG Version: 6.00 Build 0)  -->
<!DOCTYPE svg PUBLIC "-//W3C//DTD SVG 1.1//EN" "http://www.w3.org/Graphics/SVG/1.1/DTD/svg11.dtd">
<svg version="1.1" id="Layer_1" xmlns="http://www.w3.org/2000/svg" xmlns:xlink="http://www.w3.org/1999/xlink" x="0px" y="0px"
	 viewBox="0 0 184.5 188.5" enable-background="new 0 0 184.5 188.5" xml:space="preserve">
<path fill="#CC66FF" d="M179.8,188.5H4.7c-2.6,0-4.7-2.1-4.7-4.7V4.7C0,2.1,2.1,0,4.7,0h175c2.6,0,4.7,2.1,4.7,4.7v179
	C184.5,186.4,182.4,188.5,179.8,188.5z"/>
<g>
	<path fill="#F7F8F9" d="M22.8,59h18.4c0,0,1.3-1.5,3.3,2.1v43.2c0,0-1.3,4-2.2,3.3l-18.5,0.1c0,0-2.9-1.6-2.7-3.4l0-43.1
		C21.1,61.3,21.3,61,22.8,59z"/>
	<linearGradient id="SVGID_1_" gradientUnits="userSpaceOnUse" x1="46.4862" y1="91.3636" x2="17.5138" y2="74.6364">
		<stop  offset="0" style="stop-color:#FFFFFF"/>
		<stop  offset="1" style="stop-color:#000000"/>
	</linearGradient>
	<rect x="22.5" y="66" fill="url(#SVGID_1_)" width="19" height="34"/>
	<rect x="28.3" y="61.7" fill="#000102" width="7.2" height="1.8"/>
	<ellipse fill="#000102" cx="32.5" cy="103" rx="1.6" ry="1.7"/>
	<path fill="#F7F8F9" d="M28.5,55V21.2c0,0,1.3-4,4.6-5.2h91.8c0,0,2.6-0.1,2.6,2.9v13.9l-5.1,0.4l-0.1-9.2H34.5v31H28.5z"/>
	<rect x="48.5" y="76" fill="#F7F8F9" width="58" height="15"/>
	<polygon fill="#F7F8F9" points="68.3,94 67,99.1 63.1,104 92.9,104 89,99 88.3,94 	"/>
	<path fill="#F7F8F9" d="M115.9,38.9c0,0-2.4,0.9-3.4,3.1v62.2l3.9,2.7h38.8l2.3-3.7v-61l-3-3.5L115.9,38.9z"/>
	<linearGradient id="SVGID_2_" gradientUnits="userSpaceOnUse" x1="160.9748" y1="88.7853" x2="108.0252" y2="58.2147">
		<stop  offset="0" style="stop-color:#FFFFFF"/>
		<stop  offset="1" style="stop-color:#000000"/>
	</linearGradient>
	<rect x="114.5" y="47" fill="url(#SVGID_2_)" width="40" height="53"/>
	<ellipse fill="#020002" cx="78.1" cy="83.3" rx="2.2" ry="2.6"/>
	<ellipse fill="#000102" cx="140.8" cy="103" rx="1.6" ry="1.7"/>
	<ellipse fill="#000102" cx="135.5" cy="103" rx="1.6" ry="1.7"/>
	<ellipse cx="130.3" cy="103" rx="1.6" ry="1.7"/>
</g>
<g>
	<path fill="#FFFFFF" d="M26.5,144.5l1.3-11.2h2.8l-2.3,17.1h-2.9l-2-11.3l-2,11.3h-2.9l-2.3-17.1h2.8l1.3,11.1l1.9-11.1h2.3
		L26.5,144.5z"/>
	<path fill="#FFFFFF" d="M43.5,142.7H36v5.4h8.7v2.3H33v-17.1h11.7v2.3H36v4.8h7.5V142.7z"/>
	<path fill="#FFFFFF" d="M48.2,150.4v-17.1H54c0.9,0,1.7,0.1,2.4,0.3s1.4,0.5,2,0.8c0.6,0.4,1,0.9,1.3,1.4s0.5,1.3,0.5,2.1
		c0,0.8-0.3,1.6-0.7,2.2s-1.2,1.1-2,1.4c0.5,0.1,1,0.3,1.4,0.6c0.4,0.2,0.7,0.5,1,0.9c0.3,0.3,0.5,0.7,0.6,1.1
		c0.1,0.4,0.2,0.9,0.2,1.3c0,0.8-0.2,1.5-0.5,2.1s-0.8,1.1-1.3,1.5c-0.6,0.4-1.2,0.7-2,0.9s-1.6,0.3-2.5,0.3H48.2z M51.2,140.5H54
		c0.4,0,0.9-0.1,1.3-0.2c0.4-0.1,0.7-0.3,1-0.5c0.3-0.2,0.5-0.5,0.7-0.8s0.2-0.6,0.2-1c0-0.4-0.1-0.8-0.2-1.1s-0.4-0.6-0.7-0.8
		s-0.6-0.3-1-0.4c-0.4-0.1-0.8-0.1-1.3-0.1h-2.8V140.5z M51.2,142.7v5.4h3.3c0.5,0,0.9-0.1,1.3-0.2c0.4-0.1,0.7-0.3,1-0.5
		s0.5-0.5,0.7-0.8s0.2-0.7,0.2-1.1c0-0.4-0.1-0.8-0.2-1.2s-0.3-0.6-0.6-0.9s-0.6-0.4-1-0.5c-0.4-0.1-0.8-0.2-1.3-0.2H51.2z"/>
	<path fill="#FFFFFF" d="M78.7,150.4v-17.1h4.4c1.2,0,2.4,0.2,3.4,0.6c1,0.4,1.8,0.9,2.5,1.6s1.2,1.5,1.6,2.5c0.4,1,0.6,2,0.6,3.2
		v1.3c0,1.2-0.2,2.2-0.6,3.2c-0.4,1-0.9,1.8-1.6,2.5c-0.7,0.7-1.5,1.2-2.5,1.6c-1,0.4-2.1,0.6-3.3,0.6H78.7z M81.7,135.6v12.5h1.5
		c0.8,0,1.5-0.1,2.2-0.4s1.1-0.6,1.5-1.1s0.7-1.1,0.9-1.8s0.3-1.5,0.3-2.3v-1.3c0-0.8-0.1-1.6-0.3-2.3s-0.5-1.3-0.9-1.8
		c-0.4-0.5-0.9-0.9-1.6-1.2c-0.6-0.3-1.4-0.4-2.2-0.4H81.7z"/>
	<path fill="#FFFFFF" d="M104.7,142.7h-7.5v5.4h8.7v2.3H94.3v-17.1h11.7v2.3h-8.6v4.8h7.5V142.7z"/>
	<path fill="#FFFFFF" d="M118.9,146c0-0.4-0.1-0.8-0.3-1.1s-0.4-0.6-0.8-0.8c-0.3-0.2-0.7-0.4-1.2-0.6s-0.9-0.3-1.5-0.5
		c-0.7-0.2-1.4-0.4-2.1-0.7s-1.3-0.6-1.9-1.1c-0.5-0.4-1-0.9-1.3-1.5c-0.3-0.6-0.5-1.2-0.5-1.9s0.2-1.4,0.5-2
		c0.3-0.6,0.8-1.1,1.4-1.5s1.2-0.7,2-0.9c0.7-0.2,1.5-0.3,2.3-0.3c0.9,0,1.7,0.1,2.4,0.4s1.4,0.6,2,1.1c0.6,0.5,1,1,1.4,1.6
		s0.5,1.3,0.5,2.1h-3c0-0.4-0.1-0.8-0.3-1.2s-0.4-0.7-0.6-0.9s-0.6-0.5-1-0.6s-0.9-0.2-1.4-0.2c-0.4,0-0.9,0.1-1.2,0.2
		s-0.7,0.3-1,0.5c-0.3,0.2-0.5,0.5-0.7,0.8c-0.2,0.3-0.2,0.6-0.2,1c0,0.4,0.1,0.7,0.3,1c0.2,0.3,0.5,0.5,0.8,0.8s0.7,0.4,1.2,0.6
		s0.9,0.3,1.4,0.4c0.8,0.2,1.5,0.5,2.2,0.8c0.7,0.3,1.3,0.7,1.8,1.1c0.5,0.4,0.9,0.9,1.2,1.5s0.5,1.2,0.5,2c0,0.8-0.2,1.4-0.5,2
		c-0.3,0.6-0.8,1.1-1.4,1.5s-1.2,0.7-2,0.9c-0.8,0.2-1.5,0.3-2.4,0.3c-0.6,0-1.1-0.1-1.7-0.2s-1.1-0.3-1.6-0.5
		c-0.5-0.2-1-0.5-1.4-0.8c-0.4-0.3-0.8-0.6-1.1-1c-0.3-0.4-0.6-0.8-0.8-1.3s-0.3-1-0.3-1.6h3c0,0.5,0.2,1,0.4,1.3
		c0.2,0.4,0.5,0.7,0.8,1s0.7,0.4,1.2,0.6s0.9,0.2,1.5,0.2c0.4,0,0.9-0.1,1.3-0.2c0.4-0.1,0.7-0.3,1-0.5s0.5-0.4,0.7-0.7
		C118.8,146.7,118.9,146.4,118.9,146z"/>
	<path fill="#FFFFFF" d="M125.2,133.3h10.8v2.3H132v12.4h3.9v2.3h-10.8v-2.3h3.8v-12.4h-3.8V133.3z"/>
	<path fill="#FFFFFF" d="M152.2,148.3c-0.3,0.3-0.7,0.7-1.1,0.9c-0.4,0.3-0.9,0.5-1.4,0.8c-0.5,0.2-1.1,0.4-1.7,0.5
		c-0.6,0.1-1.2,0.2-1.9,0.2c-1.1,0-2.1-0.2-2.9-0.6s-1.5-0.9-2.1-1.6s-1-1.5-1.3-2.4c-0.3-0.9-0.5-1.9-0.5-3v-2.1
		c0-1.1,0.1-2.1,0.4-3c0.3-0.9,0.7-1.8,1.3-2.4s1.2-1.2,2.1-1.6c0.8-0.4,1.7-0.6,2.8-0.6c0.9,0,1.8,0.1,2.5,0.4
		c0.7,0.2,1.4,0.6,1.9,1s1,1,1.3,1.7c0.3,0.7,0.5,1.4,0.6,2.2h-2.9c-0.1-0.5-0.2-0.9-0.3-1.2c-0.2-0.4-0.4-0.7-0.6-0.9
		c-0.3-0.3-0.6-0.5-1-0.6c-0.4-0.1-0.8-0.2-1.3-0.2c-0.6,0-1.2,0.1-1.6,0.4c-0.5,0.3-0.8,0.7-1.1,1.2c-0.3,0.5-0.5,1.1-0.7,1.7
		s-0.2,1.3-0.2,2v2.1c0,0.7,0.1,1.4,0.2,2c0.1,0.6,0.4,1.2,0.7,1.7c0.3,0.5,0.7,0.9,1.2,1.2s1.1,0.4,1.8,0.5c0.3,0,0.6,0,0.9-0.1
		c0.3,0,0.6-0.1,0.9-0.2s0.5-0.2,0.7-0.3s0.4-0.3,0.5-0.5l0-3.4H146v-2.2h6.2L152.2,148.3z"/>
	<path fill="#FFFFFF" d="M167.1,150.4h-3l-5.9-11.7l0,11.7h-3v-17.1h3l5.9,11.7l0-11.7h3V150.4z"/>
</g>
</svg>
